<?xml version="1.0" encoding="UTF-8" standalone="no"?>
<svg xmlns:rdf="http://www.w3.org/1999/02/22-rdf-syntax-ns#" xmlns="http://www.w3.org/2000/svg" height="611.25" viewBox="0 0 420 611.25" width="420" version="1.1" xmlns:cc="http://creativecommons.org/ns#" xmlns:dc="http://purl.org/dc/elements/1.1/">
 <path d="m165.94 610.27c-55.14-3.49-131.81-39.2-143.83-66.99-1.7325-4.0042-3.1535-13.07-2.3711-15.128 1.0292-2.707 0.29727-6.683-1.6422-8.9205-2.7862-3.2143-4.2841-12.895-3.0416-19.658 1.0252-5.5804 0.87674-7.9443-1.4715-23.438-1.44-9.48-3.124-21.24-3.7462-26.14-0.6221-4.9-1.6025-10.06-2.1786-11.48-4.0975-10.07-5.9287-26.39-3.9193-34.93 0.54938-2.3341 0.55203-5.8738 0.00704-9.375-2.7359-17.576-4.08-135.26-1.7965-157.29 0.91608-8.8365 0.90806-11.546-0.04026-13.594-1.8271-3.9451-1.4159-25.7 0.55786-29.516 0.96275-1.8618 2.004-8.0445 2.7953-16.598 0.69355-7.4969 1.6744-16.373 2.1796-19.724 0.50525-3.3516 1.3639-9.2578 1.9082-13.125 0.54425-3.8672 1.5789-10.406 2.2991-14.531 2.4143-13.827 3.3504-20.58 3.8167-27.532 0.25478-3.7988 1.0911-9.0211 1.8585-11.605 0.7674-2.5841 2.0646-9.3901 2.8828-15.124 3.11-21.81 11.44-33.345 33.79-46.799 12.497-7.523 43.171-18.64 60.381-21.882 18.35-3.4579 28.08-4.9227 32.81-4.9384 2.8359-0.00945 13.594-0.48994 23.906-1.0678 34.011-1.9057 108.53 2.7511 126.56 7.9092 2.581 0.73836 8.2787 2.0427 12.662 2.8985 4.3828 0.85579 9.4453 1.9229 11.25 2.3714 1.8047 0.44846 5.3343 1.2788 7.8436 1.8452 10.75 2.4266 40.726 16.619 47.879 22.669 2.0303 1.7172 5.3778 3.9659 7.439 4.9972 2.0612 1.0312 4.0725 2.5078 4.4695 3.2812 0.39708 0.77344 2.6206 4.7901 4.9411 8.9259 3.192 5.6889 4.4814 9.2267 5.2962 14.531 0.59235 3.8564 1.5472 7.588 2.122 8.2924 1.3516 1.6566 3.4149 7.5874 3.433 9.8681 0.007 0.97566 0.90651 4.7704 1.9972 8.4328 1.243 4.1739 2.0892 9.9843 2.2673 15.57 0.15629 4.901 0.74413 11.02 1.3063 13.598 0.56216 2.5781 1.6442 11.016 2.4044 18.75 3.3735 34.319 4.2272 41.642 5.574 47.812 1.621 7.4263 1.9214 21.859 0.55415 26.626-0.50097 1.7468-1.1749 14.189-1.4976 27.65-0.32269 13.461-0.81808 24.85-1.1009 25.309-0.28279 0.45916-0.67294 6.7873-0.86699 14.062-0.19405 7.2752-0.95927 20.61-1.7005 29.634-0.74121 9.0234-2.0122 25.266-2.8244 36.094-0.81223 10.828-2.3077 23.334-3.3233 27.79-1.0156 4.4565-1.8829 11.206-1.9275 15-0.0445 3.7935-0.48443 9.6394-0.97752 12.991-0.57933 3.9378-0.56355 10.201 0.0446 17.703 0.80087 9.8794 0.72716 12.023-0.49462 14.386-2.9728 5.7488-7.1667 18.465-9.8232 29.786-1.5125 6.4453-3.8319 14.883-5.1542 18.75-1.7997 5.2632-2.4949 9.4795-2.7646 16.768-0.33467 9.0422-2.8151 20.081-5.1945 23.116-0.42154 0.53779-0.87791 4.3347-1.0142 8.4375-0.64135 19.312-20.907 37.1-63.446 55.689-10.993 4.8038-57.045 14.668-76.696 16.428-22.516 2.0169-29.147 2.3416-45.327 2.2192-10.055-0.076-23.133-0.4456-29.062-0.8212zm30.469-1.3551c2.5781-0.29362 11.523-0.696 19.878-0.89421 8.3548-0.19819 15.601-0.61371 16.102-0.92338 0.50106-0.30967 4.5421-0.72819 8.9801-0.93006s8.5871-0.79692 9.2202-1.3223c0.63309-0.52541 3.8891-1.2317 7.2355-1.5696 3.3464-0.33787 6.7173-0.84856 7.4907-1.1349 0.77344-0.2863 2.8828-0.44241 4.6875-0.34689 1.8047 0.0955 5.1273-0.4809 7.3835-1.2809 2.2562-0.80002 5.5305-1.4546 7.2762-1.4546 3.1882 0 21.196-5.1319 27.762-7.9118 1.9336-0.81858 3.5156-1.2064 3.5156-0.8617 0 0.34465 0.73828-0.004 1.6406-0.77427 2.1891-1.8692 10.511-6.3821 11.837-6.4191 1.6316-0.0456 11.544-5.1552 14.911-7.6862 1.6595-1.2475 4.9158-3.3829 7.2361-4.7454s5.9062-3.9566 7.9688-5.7648c2.0625-1.8082 5.5658-4.8807 7.785-6.8278 6.0901-5.3432 11.74-21.821 7.4815-21.821-1.2521 0-10.11 8.3885-10.11 9.5741 0 1.2685 1.5016 0.81338 3.75-1.1366 2.4557-2.1298 2.8125-2.2498 2.8125-0.94566 0 1.2842-5.5512 6.4791-8.6253 8.0716-1.3923 0.72132-2.8689 1.8594-3.2812 2.529-3.0346 4.928-35.968 25.033-41.006 25.033-0.5982 0-1.4884 0.37091-1.9783 0.82425-0.48985 0.45334-2.5781 1.3381-4.6406 1.9661-2.0625 0.62802-6.4042 2.1759-9.6482 3.4398-26.218 10.215-75.043 16.28-115.98 14.407-22.171-1.0144-39.773-3.9135-68.438-11.272-7.6876-1.9734-24.668-7.984-26.86-9.5076-1.3665-0.94994-5.1634-2.9834-8.4375-4.5188-5.9619-2.7958-18.325-10.335-28.484-17.37-2.9783-2.0625-6.4913-4.4716-7.8065-5.3536-2.3247-1.5589-13.186-11.207-17.507-15.552-2.516-2.5298-3.6773-1.458-2.7912 2.5761 0.39349 1.7916 1.456 3.0406 3.1163 3.6635 1.3856 0.51978 3.9958 2.2726 5.8005 3.8952s4.3359 3.8711 5.625 4.9968c3.595 3.1393 20.807 15.958 22.947 17.09 1.0433 0.55183 7.3814 3.8712 14.084 7.3764 6.7031 3.5052 12.82 6.8982 13.594 7.5399 0.77344 0.64174 2.8309 1.4358 4.5722 1.7646s6.8169 2.0586 11.279 3.8439c4.4623 1.7853 11.475 4.0754 15.584 5.0889 4.1089 1.0136 9.7911 2.513 12.627 3.332 10.933 3.1574 41.388 6.921 56.953 7.0381 3.2519 0.0245 5.8594 0.4613 5.8594 0.98159 0 2.0923-25.7 0.69538-45-2.4459-33.328-5.4246-57.508-13.873-87.656-30.626-7.5109-4.1739-17.905-11.855-26.56-19.627-5.338-4.7937-8.983-6.2266-6.3778-2.5072 1.8369 2.6226 17.274 16.769 18.298 16.769 0.44036 0 2.9201 1.6875 5.5105 3.75s5.249 3.75 5.908 3.75c0.65902 0 1.8642 0.59023 2.6783 1.3116 2.8384 2.5153 19.362 10.648 28.668 14.109 5.1562 1.9181 12.34 4.6823 15.964 6.1426 3.6633 1.4761 11.157 3.3523 16.875 4.2251 5.6571 0.86351 13.028 2.3411 16.379 3.2835 9.0203 2.5364 16.1 3.625 28.125 4.3248 5.9297 0.34508 11.625 0.97052 12.656 1.3898 1.0312 0.41934 3.3516 0.58611 5.1562 0.37061 1.8047-0.21552 5.3906-0.63206 7.9688-0.92567zm13.79-3.8026c0.99164-0.99164 18.554-1.4028 18.554-0.43435 0 0.57008-3.7673 0.94267-9.5312 0.94267-5.2422 0-9.3025-0.22874-9.0229-0.50832zm23.24-1.36c0-0.51563 2.2148-0.90785 4.9219-0.8716 3.6147 0.0484 4.4239 0.27987 3.0469 0.8716-2.6252 1.1281-7.9688 1.1281-7.9688 0zm38.438-5.6605c0-0.37904 1.1602-0.90141 2.5781-1.1608 1.418-0.2594 5.6314-1.362 9.3631-2.4502 7.6519-2.2313 8.6837-2.3581 8.6837-1.0672 0 0.50121-2.2148 1.544-4.9219 2.3174-6.4537 1.8437-15.703 3.2342-15.703 2.3608zm23.438-5.585c-0.8229-0.53443-0.94852-0.91926-0.30284-0.92766 0.60687-0.008 4.3001-1.4909 8.2071-3.2956s7.5295-3.2812 8.0499-3.2812c0.52043 0 1.6788-0.3821 2.5742-0.8491 0.89535-0.467 4.3701-1.9575 7.7216-3.3123 6.934-2.8028 7.4684-3.079 18.035-9.3218 8.9077-5.2629 19.217-12.519 24.568-17.292 2.4614-2.1954 3.831-2.8933 4.0992-2.0887 0.59216 1.7765-8.5125 9.4945-19.967 16.926-1.1921 0.77344-5.0585 3.3136-8.5919 5.6447-10.516 6.9377-26.368 14.218-36.717 16.863-2.2236 0.5683-4.544 1.2164-5.1562 1.4402-0.61228 0.22384-1.746-0.004-2.5195-0.50631zm-75.938-1.9283c15.818-1.0942 14.7-0.97304 34.968-3.7875 8.6-1.19 15.65-2.5 15.65-2.91 0-1.1642-3.772-0.8973-16.656 1.1785-60.5 9.75-127.75-0.28-178.34-26.58-17.136-8.91-33.719-22.8-49.955-41.85-3.497-4.1025-4.4636-4.787-4.9542-3.5084-0.60022 1.5642 1.0073 4.73 4.1124 8.099 0.86787 0.94164 3.6873 4.2986 6.2654 7.46 5.0343 6.1732 17.789 17.596 25.352 22.705 12.961 8.7552 49.615 25.185 56.187 25.185 0.88826 0 2.9444 0.60579 4.5692 1.3462 7.5807 3.4545 29.368 8.4208 49.829 11.358 7.8004 1.1198 34.526 3.0079 37.031 2.6162 1.2891-0.20159 8.4609-0.78966 15.938-1.3068zm22.5-6.4745c24.902-2.9983 46.875-8.2696 46.875-11.245 0-0.44524-1.3632-0.4542-3.0469-0.02-9.6051 2.477-28.184 5.6708-46.634 8.0161-10.759 1.3678-56.611 2.0631-62.351 0.94562-1.0312-0.20079-4.1953-0.64225-7.0312-0.98105-6.6273-0.79171-19.168-2.9595-28.125-4.8615-12.16-2.5824-43.342-11.737-45.363-13.318-0.57406-0.44918-2.1775-1.0872-3.5633-1.4179-1.3857-0.33065-5.2509-1.8654-8.5891-3.4105-3.351-1.55-6.272-2.81-6.504-2.81-0.23191 0-3.4993-1.6917-7.2609-3.7594-6.5809-3.6174-8.8671-4.1778-6.7465-1.6539 1.0981 1.3069 4.5264 3.1082 18.014 9.4645 17.119 8.068 22.163 9.9497 40.312 15.04 15.694 4.4013 41.501 9.9386 52.5 11.265 6.4119 0.77303 58.739-0.19897 67.5-1.2539zm-124.22-1.3635c-2.0625-0.64911-4.1439-0.96579-4.6253-0.70373-1.2697 0.69118 2.28 1.8973 5.5628 1.8901 2.633-0.006 2.5732-0.0815-0.9375-1.1864zm174.37-5.24c0.69492-1.1244-2.0709-1.1244-4.6875 0-1.5805 0.67917-1.4052 0.81607 1.1165 0.8716 1.6454 0.0363 3.2523-0.35598 3.571-0.8716zm-76.244-11.729c0.63093-11.238 1.7942-18.695 3.1119-19.949 0.38492-0.36628 0.44421 3.3418 0.13176 8.2403-0.31245 4.8984-0.67927 12.07-0.81514 15.938l-0.24705 7.0312 3.0469 0.29377 3.0469 0.29378 0.0593-4.5125c0.0326-2.4819 0.43558-9.1532 0.89549-14.825 0.4599-5.6719 1.2763-18.328 1.8142-28.125 0.53788-9.7969 1.2192-18.955 1.514-20.351l0.53602-2.5382-7.6189 0.16243c-10.2 0.22-10.2 0.19-10.72 62.57-0.11475 13.574 4.448 9.8919 5.2407-4.2286zm2.6502-30.459c0-2.96 0.35915-4.5762 0.9375-4.2188 0.51562 0.31867 0.9375 2.2171 0.9375 4.2188 0 2.0016-0.42188 3.9001-0.9375 4.2188-0.57835 0.35744-0.9375-1.2587-0.9375-4.2188zm0.0803-14.062c0.0283-4.3828 0.4141-8.8125 0.85725-9.8438 0.53238-1.2389 0.8232 0.9874 0.85725 6.5625 0.0283 4.6406-0.35741 9.0703-0.85725 9.8438-0.6239 0.96541-0.89263-1.0919-0.85725-6.5625zm-36.975 54.154c0.39369-0.63701 0.65878-4.1399 0.58906-7.7842-0.0697-3.6443 0.25943-7.2364 0.7314-7.9824 0.58499-0.92463 0.86273 0.16871 0.87252 3.4346 0.0261 8.7065 1.033 13.49 2.8395 13.49 3.4565 0 3.7408-1.9714 4.1181-28.556 0.24405-17.192 0.71867-26.356 1.4004-27.038 0.75005-0.75005 1.039-0.40492 1.0597 1.2656 0.60081 48.54 0.98828 54.328 3.6368 54.328 2.9497 0 2.969-0.20001 3.4325-35.669l0.44202-33.822-3.5164 0.29216c-3.2615 0.27098-3.5348 0.52439-3.7713 3.4967-0.36974 4.6476-1.1896 4.8081-1.1896 0.23297 0-4.345 1.0478-3.9151-10.312-4.2314l-5.1562-0.14357-0.57171 11.25c-0.46053 9.0626-0.44371 30.924 0.0427 55.547 0.0639 3.2311 3.7248 4.5228 5.3529 1.8886zm1.2259-31.42c-0.0242-7.0898-0.26371-17.426-0.53235-22.969-0.41698-8.6036-0.2801-10.078 0.93557-10.078 1.5266 0 2.3467 18.154 1.6835 37.266-0.4676 13.476-2.0373 10.302-2.0868-4.2188zm24.762 21.569c2.5598-44.818 2.0203-58.635-2.2717-58.188l-2.8019 0.29138-0.0259 23.906c-0.0526 48.649-0.23666 45 2.2698 45 2.1488 0 2.2157-0.26019 2.8296-11.009zm24.535 10.017c0.33733-0.54581 1.7333-0.75749 3.1022-0.47041 4.7085 0.98748 5.1358-0.1078 5.5262-14.164 0.19809-7.1316 0.7686-14.443 1.2678-16.248 0.49919-1.8047 1.4939-10.333 2.2104-18.952 0.71654-8.6191 1.5767-16.114 1.9115-16.656 2.8419-4.5982 2.8101 12.583-0.0586 31.693-2.4421 16.268-2.8567 32.554-0.84837 33.324 2.6731 1.0258 3.0064-0.0515 4.0228-13.003 1.0639-13.556 3.4379-37.297 4.8669-48.673 1.13-8.9944 1.3909-8.6994-6.3609-7.1928-3.4644 0.67331-8.1883 1.2841-10.497 1.3573-4.6736 0.14816-6.1349 3.3163-5.034 10.914 0.26147 1.8047-0.18845 9.8203-0.99984 17.812-1.3841 13.633-3.3615 37.151-3.3615 39.98 0 1.4969 3.3634 1.7165 4.2527 0.27772zm1.169-4.9646c-0.27652-1.4465 0.0759-7.7644 0.78325-14.04 0.7073-6.2753 1.7552-19.003 2.3287-28.285 1.1532-18.662 1.299-19.626 2.8282-18.681 1.1963 0.73937 0.98503 4.6672-2.064 38.368-2.0134 22.254-2.9281 27.596-3.8762 22.637zm-61.215-8.5742c-0.007-7.2188-0.11198-22.704-0.23438-34.411l-0.22252-21.286-3.325-0.62378c-4.3927-0.82407-4.6776-0.37922-4.4477 6.9461 0.10785 3.4369 0.54671 18.061 0.97521 32.499 0.8293 27.941 1.3298 30.845 5.2202 30.291 1.9923-0.28362 2.0456-0.63547 2.0341-13.416zm-9.4758 2.5781c-0.19579-5.543-0.61477-21.363-0.93105-35.156-0.53512-23.337-0.69254-25.078-2.2671-25.078-0.93063 0-2.3078-0.23627-3.0603-0.52505-2.0897-0.80189-2.302 2.9806-1.465 26.102 1.6203 44.76 1.6168 44.736 6.4964 44.736 1.4097 0 1.5441-1.1039 1.2271-10.078zm98.785 7.0228c0.6969-0.54968 1.1719-3.1313 1.1719-6.3696 0-2.9949 0.82532-11.908 1.834-19.807s2.2804-20.057 2.8258-27.018c0.54549-6.9609 1.2459-13.605 1.5566-14.766 0.44742-1.6711 0.17633-2.1094-1.3048-2.1094-2.563 0-4.3115 2.3672-3.6317 4.9169 0.31004 1.1629-0.23772 9.0753-1.2172 17.583-4.008 34.813-4.5919 40.438-4.6948 45.234-0.0305 1.418-0.54227 2.5781-1.1374 2.5781-1.3699 0-0.50828-20.266 1.4947-35.156 1.4716-10.94 3.3726-32.621 2.9016-33.092-2.8162-2.8163-4.792 1.303-4.9923 10.408-0.11563 5.2574-0.82004 14.41-1.5653 20.34-4.7794 38.026-3.457 45.315 6.7591 37.257zm-107.91-15.929c-0.34239-9.4102-1.049-19.641-1.5701-22.734-0.52118-3.0938-0.89351-11.104-0.82738-17.801l0.1202-12.176-3.1274-0.63963c-1.7201-0.3518-3.4956-0.41207-3.9456-0.13394-0.88111 0.54456-0.0555 24.125 1.2948 36.983 2.9559 28.147 3.1221 33.106 0.97501 29.094-2.1457-4.0092-6.4445-57.236-5.1468-63.724 0.67759-3.3879 1.018-3.1926-8.5387-4.9-3.6094-0.64487-7.6276-1.7106-8.9294-2.3683s-5.4045-1.3847-9.1172-1.6155c-3.7127-0.23082-7.2906-0.86804-7.9509-1.416-0.66031-0.54801-2.4638-1.2908-4.0078-1.6506-1.544-0.35981-4.8276-1.2914-7.2968-2.0702-5.9685-1.8825-5.8582-2.2444-4.139 13.577 0.82712 7.612 1.7491 16.582 2.0489 19.934 0.29976 3.3516 1.153 8.8359 1.8961 12.188 0.74309 3.3516 1.9663 9.6014 2.7183 13.889 1.4633 8.3427 2.563 10.486 5.3792 10.486 1.3536 0 1.6696-0.50355 1.3235-2.1094-1.229-5.7029-4.361-29.636-5.1836-39.609-0.51033-6.1875-1.3276-13.992-1.8162-17.344-0.48859-3.3516-0.52961-6.4607-0.09122-6.9093 0.91205-0.93308 2.8093 5.1448 2.8171 9.0248 0.003 1.4214 0.59618 6.6948 1.3184 11.719 0.72226 5.024 1.8187 13.986 2.4364 19.916 2.5638 24.608 3.5768 28.079 8.2035 28.111 2.6071 0.0177 2.6126-0.42786 0.16599-13.579-2.6361-14.17-4.53-29.663-4.5785-37.453-0.0579-9.2983 1.683-6.7302 2.8897 4.2626 1.9502 17.767 7.1933 47.963 8.4682 48.771 0.69176 0.43844 2.4179 0.80362 3.8359 0.81152 3.0217 0.0168 3.0597-0.31523 1.1792-10.298-5.3248-28.266-8.3384-58.125-5.8664-58.125 1.9834 0 3.6321 10.083 6.8215 41.719 1.5807 15.679 5.8005 29.531 8.9961 29.531 2.1756 0 2.239-1.8916 0.39734-11.85-0.74954-4.0531-1.8191-11.588-2.3767-16.744-0.92695-8.5714-3.7534-36.245-3.7583-36.797-0.00094-0.1289 0.58283-0.23437 1.2977-0.23437 1.4638 0 1.7747 1.7059 3.8452 21.094 0.77091 7.2188 2.07 18.398 2.887 24.844 0.81694 6.4453 1.6268 13.755 1.7996 16.245 0.38274 5.5128 2.3441 6.5404 13.519 7.0831l2.2568 0.10959-0.62254-17.109zm142.89 16.139c2.104-1.126 2.408-2.7795 0.51098-2.7795-2.1644 0-6.1489 3.6799-4.0266 3.7188 0.93624 0.0172 2.5183-0.40553 3.5156-0.93929zm-26.313-7.7014c-0.00094-6.8968 0.92821-17.816 3.3488-39.336 0.73705-6.5528 1.3401-13.539 1.3401-15.524 0-1.9854 0.63153-4.4287 1.4034-5.4296 1.8047-2.3402 0.72667 22.448-2.306 53.024-0.70398 7.0977-0.4757 9.375 0.93976 9.375 1.2344 0 1.7968-2.7454 2.701-13.185 0.46609-5.381 1.4864-15.268 2.2673-21.971 2.3678-20.324 2.65-31.671 0.76913-30.926-0.85573 0.33895-2.9639 0.85253-4.6848 1.1413-4.1706 0.69975-4.4784 1.6908-6.1938 19.941-2.5903 27.558-4.2102 43.54-4.6687 46.061-0.53693 2.9528 0.00094 3.6263 2.8977 3.6263 2.0906 0 2.1874-0.30096 2.1862-6.7969zm14.455 3.8941c0.50283-0.45946 0.21087-1.0348-0.70312-1.3855-1.8564-0.71237-2.1008-5.5279-0.48103-9.4788 0.59509-1.4515 1.1742-5.3814 1.2869-8.7329 0.1127-3.3516 0.64971-10.102 1.1934-15 0.54365-4.8984 1.4402-14.113 1.9922-20.477 0.55206-6.3637 1.2225-11.924 1.4899-12.357 0.26741-0.43267 0.017-1.0767-0.55656-1.4311-1.8414-1.138-3.8281 2.021-4.2289 6.7241-0.21425 2.5146-0.79503 8.3689-1.2906 13.01-0.49556 4.6406-1.1681 11.812-1.4946 15.938-0.32648 4.125-1.015 9.3984-1.53 11.719-0.51504 2.3203-0.88144 7.2119-0.81423 10.87 0.0672 3.6583-0.28719 7.7282-0.78754 9.0442-1.3084 3.4413 2.7073 4.4972 5.9242 1.5578zm26.81-0.38c0-0.875-0.88541-1.4062-2.3438-1.4062-2.9172 0-3.0916 1.6006-0.23438 2.1509 1.1602 0.22345 2.2148 0.46373 2.3438 0.53395 0.12891 0.0702 0.23438-0.50514 0.23438-1.2786zm-21.562-3.1665c0-2.9692 2.4907-4.3429 3.7176-2.0503 0.68909 1.2876 1.9664 1.9355 3.8154 1.9355 3.158 0 3.4349-0.94076 1.2556-4.2667-1.2696-1.9376-1.3502-2.9882-0.48319-6.2952 0.57238-2.1832 1.4528-6.9225 1.9564-10.532 0.50364-3.6094 1.5509-10.781 2.3272-15.938 1.6818-11.17 2.903-28.772 2.135-30.773-0.89691-2.3373-4.6667-0.83997-4.052 1.6094 0.89359 3.5603-3.3244 46.759-5.571 57.054-1.0636 4.8743-3.5736 3.2103-2.8284-1.875 5.2968-36.148 6.5791-55.943 3.5867-55.371-1.4239 0.27208-1.7874 2.2938-2.7518 15.303-0.61112 8.2443-1.5952 18.665-2.1869 23.157-0.59166 4.492-0.80352 8.6077-0.47079 9.1461 0.59313 0.95971-1.0872 7.0306-2.49 8.9959-0.39129 0.54822-0.46843 2.4943-0.17141 4.3245 0.29701 1.8303 0.0575 4.2294-0.53227 5.3314-0.93195 1.7414-0.82259 2.0036 0.83571 2.0036 1.2415 0 1.908-0.61486 1.908-1.7602zm15.57-10.024c0.61266-4.0889 1.823-11.02 2.6896-15.403 0.86663-4.3828 2.0921-15.669 2.7232-25.081 0.70927-10.577 1.5762-17.541 2.2698-18.234 1.6233-1.6233 1.3803-2.6223-0.63791-2.6223-3.1916 0-3.7857 2.2816-5.2626 20.213-0.80433 9.7654-1.8287 20.076-2.2763 22.912-0.44765 2.8359-1.5038 9.5011-2.3469 14.811-0.84316 5.3103-1.2712 10.079-0.9513 10.596 1.4051 2.2735 2.7587-0.29351 3.7924-7.1921zm18.066-0.40315c2.9581 0 10.373-5.9793 9.8751-7.9632-0.46918-1.8694 1.1094-11.353 4.7605-28.599 5.3045-25.056 5.7453-37.517 1.1651-32.937-0.58409 0.58409-2.4025 1.062-4.0409 1.062-3.7718 0-5.4267 1.9283-4.6581 5.4277 0.32519 1.4806 0.12607 4.7674-0.4425 7.304-0.56858 2.5366-1.6324 9.0417-2.3642 14.456-0.73171 5.4141-1.9323 13.008-2.6681 16.875-0.73573 3.8672-1.8368 9.9844-2.4469 13.594-1.2364 7.3146-2.6637 10.986-3.9595 10.185-0.97681-0.60371-0.0157-11.747 1.3204-15.308 3.7159-9.9052 8.335-47.432 5.9166-48.068-0.92279-0.24262-1.5272 3.2247-5.2681 30.222-1.036 7.4766-2.2584 15.07-2.7165 16.875-0.45812 1.8047-1.2926 6.19-1.8545 9.7452-1.1766 7.4453-2.4296 10.292-4.2268 9.602-1.3474-0.51706-3.6321 1.5486-2.7207 2.46 0.29751 0.2975 3.4348-0.69053 6.9717-2.1956 3.537-1.5051 6.8478-2.7366 7.3574-2.7366zm1.092-4.9219c0.0225-1.1602 0.4507-4.0078 0.95165-6.3281 1.1233-5.2029 3.1975-16.897 4.6561-26.25 0.60307-3.8672 1.7526-9.5625 2.5546-12.656 0.80196-3.0938 1.3851-7.4808 1.296-9.7489-0.16671-4.2398 1.7063-7.5948 4.2399-7.5948 2.4121 0 0.27701 17.45-5.3341 43.594-0.44266 2.0625-1.2837 6.0491-1.8689 8.8592-1.7816 8.5544-6.6105 16.082-6.4952 10.125zm-230.1 0.024c-0.36-4.25-1.027-9.41-1.489-11.49-1.227-5.51-3.55-22.79-4.731-35.18-1.399-14.69-1.388-14.66-4.797-15.84-1.627-0.57-3.143-1.04-3.369-1.04-0.22619 0-0.11654 1.7444 0.24367 3.8765 0.36021 2.132 0.99627 7.0891 1.4135 11.016 1.6079 15.133 5.5074 41.948 6.4662 44.466 0.55284 1.4515 1.0052 4.2782 1.0052 6.2815 0 3.6289 1.5509 5.5158 4.5879 5.582 1.0645 0.0232 1.1875-1.4004 0.66364-7.6819zm217.81 1.3822c1.1997-4.4612 2.8436-15.773 2.8271-19.453l-0.0127-2.8125-1.8438 2.2132c-1.157 1.3888-1.859 3.6588-1.8846 6.0938-0.0375 3.5662-0.41108 5.8855-2.3238 14.427-1.0313 4.6059 1.9908 4.1683 3.2378-0.46875zm-227.76 1.13c0-0.79504-1.0268-6.5958-2.2817-12.891-3.4805-17.458-7.7438-51.054-6.7932-53.531 0.54319-1.4155-3.5148-5.1679-4.5113-4.1715-1.8878 1.8878 2.2543 41.074 5.6862 53.793 0.70092 2.5978 1.5597 7.1513 1.9085 10.119 0.70115 5.9657 5.9914 11.865 5.9914 6.6811zm267.71-2.6966c1.0001-0.73128 1.4909-1.6571 1.0906-2.0573-0.40023-0.40024-1.6535 0.19809-2.785 1.3296-2.2933 2.2933-1.13 2.7929 1.6944 0.72769zm-276.64-2.18c-0.38362-0.90234-1.0264-3.75-1.4284-6.3281-0.40198-2.5781-1.4059-8.2734-2.231-12.656-2.0125-10.691-4.5105-37.723-4.0441-43.763l0.37503-4.8566-4.2905-1.6142c-2.3598-0.8878-5.1226-2.1828-6.1397-2.8778-1.0171-0.69496-2.1527-1.2636-2.5236-1.2636-1.4022 0 3.1557 45.573 5.3047 53.041 0.75334 2.6176 1.5036 7.053 1.6673 9.8566 0.32975 5.6484 1.064 7.4154 3.0812 7.4154 1.7019 0 1.6989-2.108-0.01529-10.586-2.7684-13.693-6.4988-52.931-5.2276-54.988 1.8166-2.9394 3.2281 3.4709 3.8077 17.293 0.71143 16.966 5.9675 49.956 8.2523 51.797 2.2073 1.7782 4.248 1.4978 3.4119-0.46875zm264.4-3.976c0.32583-1.0266 0.32351-2.3017-0.006-2.8336-0.32868-0.53183 0.042-2.9614 0.8237-5.399 0.78171-2.4376 2.0938-8.2289 2.9158-12.87 0.822-4.6406 2.0877-11.18 2.8126-14.531 0.72493-3.3516 1.7872-9.4688 2.3606-13.594 0.57338-4.125 1.2256-8.6902 1.4494-10.145 0.32482-2.1117 0.082-2.5824-1.2041-2.3347-1.2995 0.25026-1.908 2.398-3.148 11.111-0.8454 5.9402-2.2484 14.374-3.1178 18.741-0.86938 4.3673-2.1542 10.894-2.8552 14.503-0.70095 3.6094-1.7326 8.8095-2.2925 11.556-0.55991 2.7464-1.018 5.594-1.018 6.3281 0 2.0201 2.6026 1.5978 3.2786-0.53188zm25.18-3.4045c10.935-9.1206 12.086-10.671 15.794-21.29 4.1261-11.814 3.9556-10.939 2.1302-10.939-0.7862 0-1.864 1.1602-2.3951 2.5781-1.8889 5.043-8.3655 14.808-11.601 17.491-2.5065 2.0786-3.1618 3.2212-2.7616 4.8156 0.39026 1.5549-0.33507 2.9502-2.8316 5.4466-5.0014 5.0015-3.7572 6.4197 1.6647 1.8976zm-17.676-3.9637c1.1667-7.6831 3.5028-19.534 4.3704-22.171 0.50891-1.5469 1.2892-5.1328 1.7341-7.9688 2.4465-15.597 3.7453-23.194 4.2874-25.078 0.44205-1.5366 0.21504-2.1094-0.83609-2.1094-1.8269 0-2.9703 3.8179-4.352 14.531-0.59849 4.6406-1.8973 12.023-2.8863 16.406-0.98895 4.3828-2.4555 11.977-3.259 16.875-0.80347 4.8984-1.8752 9.8871-2.3816 11.086-0.50641 1.1988-0.66691 2.5904-0.35664 3.0924 1.0019 1.6211 3.136-1.0834 3.6796-4.6631zm-287.34 2.13c0-1.323-0.39222-3.1382-0.87159-4.034-1.9492-3.6422-6.5818-41.212-6.6101-53.608-0.019-8.3296-0.78397-10.266-4.0561-10.266-1.1849 0-1.6101 0.46311-1.2608 1.3733 0.28983 0.75529 0.77644 4.6576 1.0813 8.6719 2.821 37.14 11.718 81.07 11.718 57.86zm300.94-1.0191c1.8047-1.8507 2.4375-2.8991 1.4062-2.3298-2.3921 1.3206-6.0938 4.4803-6.0938 5.2014 0 1.2731 1.6041 0.2904 4.6875-2.8716zm-312.2-13.91c-2.7061-16.911-4.9919-37.865-5.1311-47.038-0.13094-8.6316-1.1116-11.556-3.8751-11.556-1.5893 0-1.59-0.17174 0.05057 13.072 0.73812 5.9587 2.0361 16.951 2.8843 24.428 2.8295 24.939 4.9275 34.504 7.0516 32.149 0.36847-0.40858-0.07269-5.3835-0.98034-11.055zm304.94 7.7344c0.23591-2.1914 0.87759-5.25 1.426-6.7969 1.4536-4.1004 6.4853-26.695 8.2452-37.024 0.83393-4.8946 1.9177-9.6494 2.4083-10.566 1.2528-2.341 0.18181-3.7371-1.9795-2.5804-1.0732 0.57439-1.9666 2.4502-2.3452 4.9244-1.055 6.8944-8.8492 46.025-9.8515 49.459-1.3107 4.4912-1.1981 6.5687 0.35604 6.5687 0.85107 0 1.4625-1.3995 1.7408-3.9844zm-310.03-3.75c-2.172-10.24-5.212-29.77-5.212-33.48 0-2.4063-0.41277-6.6675-0.91726-9.4692-0.5045-2.8017-1.1084-9.1019-1.342-14-0.41276-8.6557-0.49905-8.9432-3.0671-10.221-1.4533-0.72303-3.8349-2.3051-5.2925-3.5156-3.2821-2.726-4.8019-2.8638-3.436-0.31164 0.83224 1.5551 2.653 16.472 2.7732 22.72 0.01736 0.90235 0.70375 1.6406 1.5253 1.6406 1.3087 0 1.411-1.1034 0.82601-8.9062-0.56306-7.5101-0.4519-8.9062 0.70908-8.9062 1.0814 0 1.5083 2.0622 1.9895 9.6094 0.33699 5.2852 1.0097 11.719 1.4949 14.297 0.48523 2.5781 1.3417 9.1971 1.9033 14.709 0.95851 9.407 3.616 22.013 5.6447 26.776 1.4143 3.3203 3.1604 2.6387 2.4018-0.9375zm273.23-3.9292c0.005-0.54598 0.63362-6.2661 1.3981-12.711 1.944-16.39 1.8906-18.016-0.58026-17.643-1.7132 0.25836-2.0174 1.0091-2.2114 5.4558-0.12366 2.8359-0.75857 9.8837-1.4109 15.662-1.3022 11.534-0.85926 15.197 1.457 12.05 0.73661-1.0009 1.343-2.2665 1.3474-2.8125zm46.68 3.04c0.61875-0.61875 1.1231-2.6227 1.1208-4.4531-0.002-1.8305 1.0233-6.7031 2.2791-10.828 1.2558-4.125 3.1756-11.719 4.2661-16.875 1.0906-5.1562 2.3502-10.852 2.7993-12.656 2.1455-8.6228 2.2771-13.72 0.30858-11.953-1.0053 0.90235-2.3736 1.6406-3.0406 1.6406-0.96679 0-0.97825 0.28267-0.0564 1.3933 1.2087 1.4564 1.152 2.1282-1.3074 15.482-3.2744 17.779-4.1163 21.613-4.992 22.734-0.50383 0.64495-1.599 3.956-2.4338 7.3578-0.83473 3.4018-1.7852 6.8823-2.1122 7.7344-0.70444 1.8357 1.4664 2.1264 3.1686 0.4242zm-327-4.2718c0-0.90575-0.40047-3.0432-0.88994-4.7498-0.48946-1.7067-1.5799-8.2429-2.4232-14.525-2.1801-16.241-2.6617-18.637-3.7181-18.503-1.3425 0.17037-0.6396 10.122 1.4817 20.978 0.98975 5.0652 1.7996 10.472 1.7996 12.015 0 3.1285 1.4615 6.432 2.8455 6.432 0.49748 0 0.90452-0.74107 0.90452-1.6468zm336.02-6.0876c0.75684-1.1602 1.3423-3.375 1.301-4.9219s0.56729-4.7109 1.3524-7.0312c0.78514-2.3203 1.9276-6.75 2.5389-9.8438 0.61123-3.0938 1.4873-7.1016 1.9468-8.9062 3.1868-12.516 4.0226-17.88 2.9526-18.951-1.6772-1.6772-2.6014-0.0532-3.8491 6.763-1.0854 5.9298-7.6052 33.81-9.4085 40.233-1.3858 4.9358 0.59505 6.5988 3.1659 2.6578zm-344.15-4.6875c-0.82637-4.347-3.0326-8.3702-4.1958-7.6513-1.9616 1.2123 1.481 10.698 3.8825 10.698 0.50068 0 0.63819-1.3375 0.31325-3.0469zm355.46-15.48c0.84279-3.4733 2.339-9.6901 3.3249-13.815 0.98592-4.125 2.6146-10.664 3.6194-14.531 1.1226-4.3208 1.493-7.3772 0.96072-7.9286-1.9143-1.9833-3.9894 2.5603-6.4725 14.172-1.4157 6.6206-3.7078 16.152-5.0935 21.18-1.3857 5.0286-2.217 9.6323-1.8474 10.23 1.1902 1.9257 3.8893-2.6353 5.5084-9.3082zm-140.69 4.4765c5.6224-0.57258 13.849-1.7183 18.281-2.5461 4.4323-0.82777 9.5353-1.6298 11.34-1.7822 1.8047-0.15247 5.3906-0.72879 7.9688-1.2807 2.5781-0.55191 5.5312-1.1646 6.5625-1.3616 7.1856-1.3723 9.1571-2.188 8.3693-3.4626-0.3588-0.58057-1.0423-0.52415-1.8588 0.15342-0.71019 0.58941-1.8328 0.87615-2.4947 0.63719-1.9574-0.70668 17.873-7.2428 21.975-7.2428 0.7899 0 1.9302-0.59526 2.534-1.3228 1.8332-2.2089-0.59966-2.7817-4.9246-1.1594-4.3692 1.6389-19.948 5.7469-25.006 6.594-8.1388 1.3631-26.649 3.6309-35.625 4.3648-5.4141 0.44263-13.008 1.2417-16.875 1.7757-25.509 3.5223-74.593 0.15062-102.25-7.0237-2.8698-0.74447-6.5363-1.3536-8.1478-1.3536s-3.1908-0.42188-3.5094-0.9375c-0.79416-1.285 0.79149-1.1825 8.4378 0.54531 10.928 2.4692 14.787 3.0896 19.687 3.1651 2.5781 0.0397 7.6406 0.70432 11.25 1.477 17.728 3.7949 73.7 3.7488 97.031-0.08 4.8984-0.80387 11.835-1.8586 15.415-2.344 12.79-1.734 40.934-9.2771 43.659-11.702 0.77979-0.69374 2.7608-1.2232 4.4022-1.1765s4.1675-0.71698 5.6135-1.697l2.6291-1.7818-2.5461-0.29356c-1.4004-0.16146-3.9316 0.32556-5.625 1.0822-5.4927 2.4544-21.628 7.0257-29.798 8.4419-44.464 7.7081-52.217 8.4322-84.068 7.8525-14.349-0.26115-28.831-0.90917-32.182-1.44-3.3516-0.53087-10.523-1.4814-15.938-2.1122-5.4141-0.63083-12.797-1.6833-16.406-2.3389-23.183-4.2108-28.162-5.216-32.574-6.5768-14.2-4.3802-23.219-7.451-27.426-9.3386-2.5781-1.1566-9.3281-4.1121-15-6.5679-12.987-5.6231-24.652-12.762-40.142-24.568-6.2937-4.7967-8.1392-5.7358-8.1392-4.142 0 5.6445 39.697 30.257 66.562 41.269 2.8359 1.1625 6 2.4867 7.0312 2.9427 1.0312 0.45603 7.5703 2.4373 14.531 4.4029 7.1144 2.0089 11.706 3.7084 10.487 3.8812-1.1932 0.16909-4.9901-0.53126-8.4375-1.5564s-8.0955-2.1556-10.329-2.5122c-2.2336-0.3566-5.1867-1.2357-6.5625-1.9535-1.3758-0.71781-3.1343-1.2744-3.9078-1.2369-1.25 0.0607-1.25 0.12475 0 0.57689 7.5006 2.713 10.159 5.6758 4.0671 4.533-3.8757-0.72708-23.679-8.1341-27.973-10.463-1.5469-0.83884-5.7656-3.0082-9.375-4.8207-6.7433-3.3864-25.067-15.097-25.625-16.377-0.45344-1.0399-2.9688-0.88071-2.9688 0.18787 0 0.49748 0.94922 1.3996 2.1094 2.0048 1.1602 0.60514 2.7422 1.685 3.5156 2.3998 1.4675 1.3561 3.6277 2.7904 14.531 9.648 16.176 10.174 42.189 21.133 58.901 24.815 3.1828 0.70118 9.3728 2.3291 13.756 3.6176 10.71 3.1486 21.072 5.1431 32.863 6.3257 5.386 0.54019 10.631 1.2371 11.656 1.5487 6.5807 2.001 61.851 2.2132 80.547 0.30927zm-80.08-3.72c-5.2177-0.48952-5.7149-0.6851-3.4585-1.3604 2.3306-0.69751 4.8563-0.42123 15.177 1.6601 2.74 0.55256-4.6488 0.36358-11.719-0.29972zm74.299 0.34593c0.62442-0.62442 18.494-3.1257 22.654-3.1709 4.9795-0.0541 1.8131 0.99662-7.0851 2.3511-9.0927 1.3841-16.524 1.7754-15.569 0.81982zm-109.46-5.5958c-3.0938-0.69819-7.5234-1.9156-9.8438-2.7053l-4.2188-1.4358 4.2188 0.47439c7.0214 0.78953 17.812 3.3831 17.812 4.281 0 1.047-0.92253 0.97586-7.9688-0.61433zm-103.11-2.06c-0.2922-2.4492-1.3566-11.166-2.3653-19.37-1.3701-11.144-1.5668-15.239-0.77787-16.189 1.5081-1.8172-4.6759-7.7999-8.0624-7.7999-0.69044 0-0.63473 7.4276 0.07559 10.078 0.91734 3.4231 2.2216 2.414 2.2216-1.7187 0-6.4612 2.311-3.987 2.546 2.7258 0.17026 4.8628-0.11731 6.0743-1.8178 7.6586-1.8688 1.741-1.9367 2.2153-0.90739 6.3347 0.61195 2.449 1.4963 7.195 1.9651 10.547 0.46888 3.3516 1.5624 7.3594 2.43 8.9062l1.5775 2.8125-0.5389-3.0935c-0.33437-1.9194-0.18845-2.8769 0.38448-2.5228 0.50786 0.31387 0.92338 1.5302 0.92338 2.7028 0 2.2372 0.69859 3.3822 2.0635 3.3822 0.44745 0 0.57446-2.0039 0.28226-4.4531zm-5.4937-9.3936c-0.24533-0.39694-0.71589-3.8774-1.0457-7.7344-0.37909-4.4333-0.28081-6.4954 0.26721-5.6064 0.47677 0.77344 1.1451 4.2539 1.4852 7.7344 0.57556 5.89 0.38802 7.3778-0.70674 5.6064zm296.36 5.6436c0.53193-1.6199-1.8459-1.4697-4.0454 0.25561-1.7359 1.3617-1.6935 1.4157 0.92039 1.1719 1.5071-0.14058 2.9134-0.78294 3.125-1.4275zm-89.564-1.7803c3.4657-0.32732 6.126-0.87856 5.912-1.225-0.94812-1.5341-0.5702-19.104 0.83769-38.944 1.8002-25.369 4.2932-75.097 4.8647-97.035 0.22161-8.5078 0.81643-21.454 1.3218-28.769 0.5-7.32 0.91-17.38 0.91-22.37v-9.0625l-7.7344 0.77114c-4.2539 0.42413-16.246 0.66889-26.65 0.54392l-18.916-0.22722-1.1946 3.3036c-1.5669 4.3332-2.9198 4.2199-2.5319-0.21197 0.27623-3.1562 0.0681-3.5404-2.0361-3.7585-4.967-0.51469-5.1392 0.11636-5.3661 19.662-0.11542 9.9447-0.63918 26.519-1.1639 36.831-0.52471 10.312-0.99105 25.5-1.0363 33.75-0.0453 8.25-0.13411 18.164-0.19743 22.031-0.0633 3.8672 0.0209 14.539 0.18722 23.715 0.31343 17.294 0.20179 18.143-2.2603 17.198-1.7515-0.6721-1.3202-139.33 0.46262-148.73 1.1435-6.0298 2.2239-5.2688-8.6028-6.0602l-9.0708-0.66303-0.68256 4.5354c-0.76745 5.0995-0.76518 5.7312 0.0651 18.129 0.38488 5.7474 0.093 13.229-0.8229 21.094-1.0516 9.0299-1.273 17.078-0.85457 31.063 0.54869 18.338 0.19745 23.16-1.5559 21.36-1.3831-1.4204-0.34406-79.446 1.2432-93.351l0.39137-3.4285-6.2272-1.0797c-3.425-0.59381-7.1832-1.2756-8.3516-1.515-3.1048-0.63624-3.9664 2.5941-3.8423 14.406 0.32154 30.596-1.4484 71.173-2.9326 67.233-1.1795-3.1313-0.14444-74.487 1.1316-78.016 1.423-3.9353 1.0048-4.2562-8.17-6.2692-4.125-0.90501-8.7756-2.2192-10.335-2.9204-1.5591-0.7012-4.0904-1.2445-5.625-1.2073s-4.2668-0.55494-6.0715-1.3158c-1.8047-0.76088-4.8455-1.6763-6.7573-2.0343s-4.654-1.2654-6.0938-2.0163c-1.4397-0.75098-3.133-1.368-3.7629-1.3712-0.62984-0.003-3.53-1.0605-6.4448-2.3495-2.918-1.28-5.578-2.33-5.914-2.33-0.66822 0-1.5532 26.124-1.3656 40.312 0.06477 4.8984 0.16292 18.398 0.21811 30 0.12612 26.512 1.5732 71.098 2.9058 89.531 2.2154 30.645 2.7828 36.307 3.7559 37.479 1.2518 1.5084 5.5074 2.4031 6.1885 1.3011 0.84375-1.3652 2.1093-0.90754 2.7082 0.97936 1.9767 6.228 7.0164 5.3382 6.0017-1.0596-5.3523-33.747-8.0308-194.82-3.1587-189.95 0.68028 0.68028 1.8557 47.334 1.4132 56.09-0.24756 4.8984-0.4145 15.023-0.37098 22.5 0.04352 7.4766 0.07629 16.547 0.07283 20.156-0.01765 18.383 0.17722 25.993 1.1282 44.062 0.56989 10.828 1.6476 26.438 2.395 34.688 0.74736 8.25 1.3797 15.847 1.4052 16.883 0.05128 2.0808 14.731 6.7706 16.299 5.207 0.43094-0.42986 0.32706-3.8884-0.23083-7.6855-4.4762-30.467-5.1872-180.01-0.88054-185.2 2.3171-2.7919 3.8897-1.4396 3.1952 2.7479-1.0855 6.5459-1.5345 132.38-0.50713 142.12 0.50812 4.8178 1.146 18.084 1.4176 29.48 0.27155 11.396 0.58731 20.789 0.70171 20.874 0.11438 0.0847 2.267 0.42389 4.7836 0.75371l4.5756 0.59967-0.62175-3.5145c-1.041-5.8846-2.3219-18.738-3.2931-33.046-0.5075-7.4766-1.4103-14.974-2.0062-16.66-0.78956-2.2345-0.80376-3.4035-0.0523-4.3089 0.7193-0.86671 1.0393-15.675 1.058-48.965 0.0298-53.157 1.015-85.223 2.6691-86.877 1.4345-1.4345 1.4268 24.602-0.0132 44.78-0.58878 8.25-0.97519 19.23-0.85869 24.401 0.63034 27.976 0.96259 52.425 0.91155 67.08-0.0548 15.709 0.63506 25.643 3.0871 44.457 0.60479 4.6406 1.1264 9.7031 1.159 11.25l0.0594 2.8125 7.0312 0.52326c8.0247 0.59718 8.4375 0.5001 8.4375-1.9848 0-2.8068 1.5742-2.152 2.1865 0.90953 0.60567 3.0284 5.4794 4.9799 7.4687 2.9906 1.4454-1.4455 2.5322-1.285 2.5322 0.37391 0 0.77344 0.73828 1.4368 1.6406 1.4741 4.53 0.18725 8.4897 0.64406 11.13 1.284l2.9265 0.7094-0.47704-19.09c-0.41184-16.481-0.27867-19.255 0.97446-20.295 2.3968-1.9892 2.8836 0.16179 3.2396 14.317 0.18208 7.24 0.41915 15.906 0.52683 19.257l0.19577 6.0938 2.8125-0.18275c4.5449-0.29532 5.4762-0.30116 8.4375-0.053l2.8125 0.23573v-10.312c0-25.978 0.48494-37.969 1.5355-37.969 0.78381 0 0.92386 6.4527 0.52799 24.326l-0.5388 24.326 4.3939 0.34871c8.048 0.63872 24.939 0.68089 31.32 0.0782zm-9.6601-4.7519c-1.1118-2.9242-0.15046-19.015 1.136-19.015 0.44912 0 0.81658 4.8516 0.81658 10.781 0 11.191-0.31819 12.532-1.9526 8.2334zm-9.7485-0.49899c-0.9613-4.1653 0.67676-46.256 2.3259-59.766 0.0315-0.25781 0.39492 0.16406 0.80766 0.9375 0.41273 0.77344 0.41801 8.3672 0.0117 16.875-0.40629 8.5078-0.75792 21.902-0.7814 29.766-0.0393 13.158-0.99846 18.104-2.3639 12.188zm-26.605-6.5625c0.082-2.1914-0.11072-17.423-0.42842-33.849-0.3177-16.425-0.13265-41.316 0.41121-55.312 0.54385-13.997 1.268-39.02 1.6091-55.606 0.56348-27.395 0.98839-32.599 2.5355-31.052 0.88334 0.88335 0.4944 29.584-0.63894 47.147-1.1705 18.139-1.4788 34.754-1.7526 94.453-0.1021 22.255-0.53214 38.203-1.0302 38.203-0.47021 0-0.78778-1.793-0.70571-3.9844zm17.498 3.489c-0.8397-0.8397 0.18781-25.935 1.1273-27.532 0.57255-0.97363 0.7786 3.5397 0.58452 12.804-0.284 13.557-0.55465 15.886-1.7118 14.729zm-46.2-5.8327c-1.7176-4.3647-2.8898-78.407-1.2319-77.816 0.36677 0.13071 0.88917 8.6752 1.1609 18.988 1.1383 43.2 1.6932 59.102 2.0858 59.766 0.22876 0.38672 0.0143 0.70313-0.4766 0.70313-0.49089 0-1.1831-0.73828-1.5382-1.6406zm10.028 0.46875c-2.1066-2.573-1.877-21.328 0.2611-21.328 1.1719 0 1.4062 1.875 1.4062 11.25 0 11.638-0.0656 12.035-1.6674 10.078zm-19.292-2.1864c-3.6782-18.21-4.0988-169.14-0.47134-169.14 0.74255 0 0.85377 6.6639 0.39509 23.672-0.92225 34.198-1.1069 95.163-0.32302 106.67 0.36989 5.4277 0.8774 15.342 1.1278 22.031 0.25039 6.6894 0.72625 13.077 1.0574 14.196 0.3312 1.1181 0.18917 2.771-0.31563 3.673-0.79298 1.417-0.99295 1.268-1.4704-1.0954zm-39.294-0.0756c-2.9792-5.0267-6.7775-80.559-4.4474-88.441 1.3177-4.4574 1.7305 0.24544 2.2634 25.781 0.55821 26.749 1.8919 49.782 3.32 57.334 0.76921 4.0677 0.0677 7.357-1.136 5.3261zm29.904-1.0192c-1.8037-6.2168-4.241-90.542-2.6454-91.528 1.2362-0.76404 2.3472 17.509 2.1476 35.324-0.15111 13.488 0.90059 37.107 2.3148 51.985 0.52608 5.5346-0.64574 8.2555-1.817 4.2188zm92.824-0.0231c-0.83069-1.3441 0.0336-20.419 1.0928-24.117l0.80545-2.8125 0.58392 3.2812c0.32115 1.8047 0.24118 5.0553-0.17773 7.2236-0.41889 2.1683-0.57578 5.9651-0.34863 8.4375 0.43377 4.7214-0.81715 9.8302-1.9558 7.9877zm-142.51-15.32c-3.5888-24.306-7.4321-176.24-4.5315-179.14 1.7488-1.7488 2.1209 6.1492 2.5265 53.631 0.57301 67.079 1.0716 85.032 3.1901 114.86 0.78368 11.033-0.03836 18.424-1.1852 10.657zm135-19.58c0.23191-12.633 0.64696-24.867 0.92234-27.188 1.9058-16.058 1.965-16.232 2.2305-6.5625 0.33917 12.353-0.0351 22.589-1.1484 31.406-0.52081 4.125-1.2798 11.508-1.6866 16.406-0.48379 5.8258-0.59377 0.96187-0.31797-14.062zm-58.182 12.313c-1.6963-2.7447-0.33543-104.75 1.3833-103.69 0.56989 0.35221 0.52362 46.2-0.0648 64.185-0.0422 1.2891 0.29786 10.359 0.75562 20.156 0.45777 9.7969 0.64307 18.34 0.41179 18.984-0.4861 1.3546-1.7575 1.5388-2.486 0.36014zm67.824-10.907c-0.12555-3.0938-0.18227-6.2578-0.12604-7.0312 0.0563-0.77344 0.53319-9.5863 1.0599-19.584 1.3661-25.928 2.1923-23.479 1.3936 4.1308-0.66666 23.046-1.8434 34.414-2.3275 22.485zm-28.735-13.136c-0.0401-14.045 0.48301-18.047 2.0314-15.542 0.78264 1.2663 0.81291 27.419 0.034 29.381-1.5472 3.8979-2.0238 0.70395-2.0654-13.84zm-9.0341-23.538c0.46915-34.459 1.0758-42.859 2.2598-31.294 0.75716 7.3954-0.9838 63.883-2.0047 65.044-0.39922 0.45398-0.51403-14.734-0.25514-33.75zm19.544 4.3308c0.27678-9.0234 1.1226-34.336 1.8796-56.25 0.75698-21.914 1.3974-40.477 1.4231-41.25 0.0383-1.1518 0.2118-1.1234 0.95886 0.15669 1.2143 2.0808 1.2336 35.999 0.0227 40.078-0.52297 1.762-0.94182 12.14-0.9308 23.062 0.0111 10.922-0.41042 22.559-0.93655 25.859-0.52613 3.3003-1.0316 9.3756-1.1233 13.501-0.0917 4.125-0.53349 8.3438-0.98176 9.375-0.47835 1.1004-0.60716-4.9025-0.31182-14.531zm-9.4965-5.2386c0.62565-7.2249 1.5389-7.5469 1.5389-0.54261 0 3.4565-0.40062 5.7812-0.99626 5.7812-0.63861 0-0.8334-1.8806-0.54261-5.2386zm0.33221-12.932c-0.28812-1.7755-0.14936-12.23 0.30835-23.232s0.85284-25.277 0.87806-31.723c0.0475-12.158 0.54078-15.938 2.08-15.938 1.6638 0-0.53017 71.908-2.2464 73.624-0.27287 0.27288-0.73188-0.95653-1.02-2.732zm20.533-15.58c0.33595-10.57 0.70867-23.438 0.82824-28.594 0.55347-23.867 1.6836-41.659 2.6098-41.087 0.64832 0.40068 0.73052 7.5296 0.25116 21.779-0.39194 11.651-0.85299 27.089-1.0245 34.308-0.40888 17.205-1.2605 28.238-2.3749 30.768-0.58873 1.3366-0.68909-4.6109-0.28978-17.174zm8.8131 12.946c0.008-1.1906 0.42331-2.7975 0.92315-3.571 0.69151-1.07 0.91222-0.69102 0.92315 1.5853 0.008 1.6454-0.40753 3.2523-0.92315 3.571-0.52278 0.32309-0.93115-0.3782-0.92315-1.5853zm1.1868-23.727c0.26516-8.25 0.89715-16.055 1.4044-17.344 0.63342-1.6096 0.77518 2.7952 0.45257 14.062-0.25837 9.0234-0.89037 16.828-1.4044 17.344-0.62128 0.62317-0.77302-4.0919-0.45256-14.062zm-132.98 8.2435c-0.79548-6.3668 0.0047-88.184 0.87136-89.05 2.0593-2.0593 3.227 33.331 1.5216 46.119-0.80117 6.0077-0.87959 12.217-0.27233 21.562 1.3246 20.384-0.25503 36.3-2.1206 21.368zm94.011-16.791c-0.66217-0.6673-0.53634-7.0503 0.71859-36.452 0.19808-4.6406 0.38965-11.099 0.42571-14.352 0.0361-3.2531 0.38199-5.7192 0.76871-5.4803 0.87771 0.54225 0.55143 36.454-0.43862 48.276-0.4033 4.8157-1.0668 8.4196-1.4744 8.0089zm-31.857-23.093c-0.63029-13.311 0.021-30.483 1.2348-32.555 0.50859-0.86818 0.84879 7.5002 0.8661 21.305 0.0302 24.046-1.1865 30.561-2.1009 11.25zm72.46-9.44c0-13.847 0.33379-21.25 0.95818-21.25 0.9019 0 0.32228 41.129-0.59345 42.109-0.2 0.21-0.36-9.17-0.36-20.86zm-30.514-8.4416c-0.33998-1.3545-0.15239-3.7988 0.41685-5.4318 0.56924-1.6329 1.035-4.8293 1.035-7.1031s0.34735-3.9195 0.77191-3.6571c0.97544 0.60287 0.23324 16.686-0.82217 17.816-0.43938 0.4704-1.0549-0.24285-1.4016-1.6241zm48.134 175.09c14.334-0.90698 13.335 0.5155 14.81-21.102 0.68285-10.011 1.4821-20.101 1.7761-22.421 0.49957-3.9423 3.3689-51.034 3.7415-61.406 0.0926-2.5781 0.47494-13.336 0.84959-23.906 0.37466-10.57 1.0597-21.328 1.5224-23.906 0.46264-2.5781 1.0528-12.914 1.3115-22.969 0.25867-10.055 0.48995-18.387 0.51393-18.516 2.1761-11.697 2.1973 11.522 0.0417 45.703-0.53655 8.5078-1.2092 22.43-1.4948 30.938-0.28558 8.5078-0.87565 21.375-1.3113 28.594-2.1497 35.625-3.69 63.077-4.1733 74.381l-0.53465 12.506 3.9923-0.62097c7.1894-1.1183 6.781-0.48004 7.0535-11.021 0.13678-5.2904 0.87415-16.58 1.6386-25.088 0.76445-8.5078 1.8143-23.484 2.333-33.281 0.51868-9.7969 1.3686-22.453 1.8887-28.125 2.555-27.863 3.6848-46.293 4.2923-70.019 0.61617-24.063 1.1486-29.369 2.7831-27.734 1.1824 1.1824 0.47227 50.507-0.94038 65.317-0.7672 8.0432-2.0605 25.593-2.8739 38.999-0.81344 13.406-2.3502 34.711-3.415 47.344s-2.2221 26.493-2.5718 30.8c-0.84268 10.381-0.62422 10.617 8.3355 8.9982 13.046-2.3573 14.356-2.9664 12.135-5.6433-0.82273-0.99132-0.96899-3.4573-0.51192-8.6308 2.3689-26.813 3.3424-39.81 5.7389-76.618 0.80572-12.375 1.8516-25.242 2.3242-28.594 0.47257-3.3516 1.0998-19.805 1.3938-36.562 0.29403-16.758 0.74115-32.714 0.99361-35.458 0.42109-4.577 0.30517-4.9643-1.403-4.6875-1.7737 0.28739-1.8863 1.2794-2.3739 20.927-0.46173 18.601-1.782 46.754-2.7699 59.062-0.20693 2.5781-0.84082 13.125-1.4086 23.438-0.56783 10.312-1.653 26.555-2.4116 36.094-0.75853 9.5391-1.6085 21.352-1.8889 26.25-1.2925 22.583-3.2516 30.405-6.7411 26.915-1.398-1.398-1.3923-2.6074 0.0722-15.388 0.87417-7.629 1.9993-19.144 2.5002-25.59 0.50095-6.4453 1.7878-22.477 2.8596-35.625s2.0625-28.125 2.2015-33.281c0.91657-34.001 3.4685-77.552 4.7106-80.391 0.54584-1.2474 0.27927-1.6406-1.1121-1.6406-4.3399 0-4.6962 1.8091-5.3541 27.188-0.95838 36.968-3.0832 75.538-5.7329 104.06-2.5655 27.618-3.2742 35.965-3.7016 43.594-0.74384 13.278-1.8173 19.219-3.4729 19.219-1.1298 0-0.37592-20.273 1.1504-30.938 0.47967-3.3516 1.3045-13.266 1.8329-22.031 0.5284-8.7656 1.3699-19.102 1.87-22.969 1.4398-11.134 4.1885-61.062 5.2546-95.444l0.64842-20.913-5.4596 0.51792c-3.0028 0.28486-5.737 0.8363-6.0762 1.2254-0.59014 0.67712-3.2234 62.889-2.8671 67.739 0.0947 1.2891-0.27351 5.7188-0.81819 9.8438s-1.8226 20.578-2.8398 36.562-2.3035 35.18-2.8585 42.656c-0.55497 7.4766-1.1426 18.15-1.3059 23.719-0.28686 9.7848-0.72679 12.007-2.1044 10.629-1.0779-1.0779-0.46925-26.294 1.0214-42.317 0.76753-8.25 1.6399-20.062 1.9385-26.25 0.29867-6.1875 0.74889-13.781 1.0005-16.875 0.94925-11.672 2.2937-35.224 2.8364-49.688 0.30954-8.25 0.89551-18.586 1.3021-22.969 0.40663-4.3828 0.82038-12.609 0.91942-18.281 0.0991-5.6719 0.42548-11.315 0.72539-12.539 0.54382-2.221 0.52794-2.2254-5.914-1.6505-3.5526 0.31702-12.088 0.97087-18.967 1.453-15.125 1.06-13.203-1.7269-13.684 19.849-0.22285 10.01-0.8247 26.427-1.3374 36.482-1.2507 24.527-1.8946 40.513-2.8768 71.431-0.45362 14.279-1.0441 26.317-1.3122 26.751-0.48965 0.79226-2.0169 18.436-3.0155 34.837l-0.53582 8.8003 2.6717-0.53435c1.4694-0.29389 7.4026-0.8337 13.185-1.1996zm-1.3639-12.351c0.30725-5.543 0.98825-15.352 1.5133-21.797 0.94335-11.579 1.9538-28.588 3.7595-63.281 0.5099-9.7969 1.57-28.143 2.3557-40.768 0.78577-12.626 1.4707-28.657 1.5221-35.625 0.10194-13.82 1.3701-21.715 1.8845-11.732 0.34009 6.6001 0.33891 6.6907-0.40106 30.757-0.31403 10.213-0.79518 21.604-1.0692 25.312-0.27403 3.7087-0.70957 15.602-0.96786 26.431-0.2583 10.828-1.1099 27.07-1.8925 36.094-0.78256 9.0234-1.1713 17.572-0.86392 18.998 0.30739 1.4253-0.0789 6.9097-0.8584 12.188-0.77951 5.2778-1.7019 13.604-2.0497 18.502-1.0898 15.347-1.0335 15-2.4332 15-0.75461 0-0.89775-2.8896-0.49929-10.078zm-7.8178-2.3523c0-6.0118 0.42199-14.006 0.93776-17.766 0.94194-6.8656 2.1729-27.299 3.7439-62.148 0.46491-10.312 1.1426-20.859 1.506-23.438 1.2789-9.073 1.9579-0.58958 1.013 12.656-0.49657 6.9609-0.96487 21.516-1.0407 32.344-0.0759 10.828-0.63818 22.852-1.2497 26.719-0.61155 3.8672-1.5745 14.625-2.14 23.906-1.1968 19.644-2.7704 24.032-2.7704 7.7258zm17.29-4.4446c0.20833-8.5078 0.83032-21.164 1.3822-28.125 1.5365-19.381 3.7114-55.065 4.3425-71.25 0.31163-7.9922 0.76112-18.75 0.99886-23.906 0.23774-5.1562 0.76466-17.824 1.1709-28.151 0.43293-11.005 1.1825-19.541 1.8109-20.625 1.3999-2.4141 1.4849 24.143 0.15168 47.37-0.51795 9.0234-1.3662 25.898-1.885 37.5-0.51878 11.602-1.3289 25.523-1.8002 30.938-0.47132 5.4141-0.88065 14.78-0.90963 20.813-0.029 6.0332-0.47766 12.994-0.99706 15.469-0.51941 2.4746-1.0644 7.7513-1.2111 11.726s-0.56548 7.5255-0.93064 7.8906c-0.36515 0.36515-0.70597 3.0194-0.75736 5.8983-0.0514 2.8789-0.46502 6.2891-0.91916 7.5781-0.51164 1.4522-0.68164-3.5402-0.44694-13.125zm-9.3813-126.09c0.84826-28.65 1.3014-36.599 2.3518-41.25 1.1696-5.1792 0.52336 43.472-0.72023 54.224-1.7107 14.791-2.312 10.009-1.6316-12.974zm83.42 140.17c6.6645-2.4904 9.609-4.4086 8.4881-5.5295-0.73375-0.73375-20.035 6.5964-21.258 8.0734-1.693 2.044 2.9873 1.1117 12.77-2.5439zm16.298-0.94401c1.9068-1.0163 7.8967-3.9986 13.311-6.6272 5.4141-2.6286 10.922-5.8049 12.239-7.0584 1.3173-1.2535 3.1468-2.279 4.0655-2.279 1.7015 0 13.632-7.8319 17.764-11.661 2.5161-2.3319 5.9153-12.48 4.6156-13.78-0.46313-0.46313-3.3639 1.5783-6.7068 4.7201-5.0767 4.7711-5.6685 5.6606-4.2823 6.4364 1.271 0.71128 1.349 1.0605 0.37152 1.6646-0.73638 0.45511-1.3858 0.31792-1.6048-0.33902-0.58617-1.7585-2.7428-1.2834-4.5967 1.0127-0.93977 1.1639-3.818 3.2173-6.3962 4.563-19.995 10.437-22.537 12.071-18.783 12.071 1.3192 0 8.3448-3.5899 12.195-6.2313 1.0171-0.69776 2.3876-1.2687 3.0456-1.2687 0.65802 0 3.6989-1.9434 6.7575-4.3186s6.0824-4.1448 6.7196-3.9324c1.6186 0.53955-3.4515 5.1077-7.8251 7.0503-1.9336 0.85884-3.5156 1.9127-3.5156 2.3418 0 0.42915-0.94922 1.1549-2.1094 1.6127-1.1602 0.45783-6.2981 3.1625-11.418 6.0105-5.1196 2.8479-12.397 6.3573-16.172 7.7985-3.775 1.4413-6.8635 2.9449-6.8635 3.3413 0 1.4031 5.7701 0.69536 9.1893-1.1271zm-269.11-3.07c-0.21226-0.64453-1.3036-1.3069-2.4251-1.4719-2.0186-0.29697-8.3777-3.4503-25.296-12.543-8.4357-4.534-11.339-5.4219-7.9146-2.4209 2.6675 2.338 18.656 10.759 31.178 16.421 3.1609 1.4293 4.9256 1.4352 4.4578 0.0148zm258.59-5.3604c3.306-1.5302 6.011-3.2177 6.011-3.75 0-1.3895-0.88213-1.2245-5.625 1.0518-2.3203 1.1137-4.8265 2.3051-5.5692 2.6477-1.4186 0.6543-2.5394 2.8327-1.4574 2.8327 0.3463 0 3.3346-1.252 6.6406-2.7822zm-25.421 0.33029c1.1568-1.1568 1.3688-2.4852 0.89801-5.625-0.36731-2.4494-0.24967-4.1106 0.29113-4.1106 1.0851 0 2.3338-10.519 5.3421-45 6.065-69.518 6.5302-74.092 7.5019-73.764 1.3879 0.46817 1.1396 9.4115-1.3319 47.983-0.52864 8.25-1.2218 15.633-1.5404 16.406-0.31861 0.77344-1.1496 9-1.8467 18.281-1.2287 16.36-3.2524 34.77-4.61 41.94l-0.66317 3.5024 3.1487-1.0047c7.3141-2.3338 8.3608-2.941 7.8489-4.5539-0.27718-0.8733 0.57354-9.3606 1.8905-18.861 3.7006-26.696 9.3271-87.256 10.75-115.71 2.6488-52.962 2.946-56.391 4.7887-55.252 1.8609 1.1501 0.22962 47.082-2.9634 83.442-1.0836 12.339-2.0988 24.545-2.256 27.123-0.45873 7.5244-3.2215 36.711-4.3928 46.406-0.59177 4.8984-1.5409 13.361-2.1091 18.806-0.67268 6.4453-1.6131 10.779-2.6954 12.422-2.1704 3.2937-0.30801 3.4123 5.881 0.37454 4.2072-2.065 4.2206-2.0875 4.9004-8.1645 0.63683-5.6926 1.5747-13.739 3.4419-29.531 0.42677-3.6094 1.435-10.992 2.2404-16.406 2.48-16.669 5.3355-45.104 5.5077-54.844 0.0274-1.5469 0.62042-8.0859 1.318-14.531 0.69753-6.4453 1.4857-16.148 1.7515-21.562 0.26582-5.4141 0.71443-13.852 0.99692-18.75 0.98311-17.048 1.1776-30.938 0.43318-30.938-3.1698 0-3.7762 1.2215-3.198 6.4414 0.55629 5.0221-0.42636 26.57-2.421 53.09-0.50417 6.7031-1.3608 18.094-1.9037 25.312-0.54286 7.2188-1.3394 18.188-1.7701 24.375-0.43068 6.1875-2.0716 20.109-3.6466 30.938-1.575 10.828-2.8311 21.164-2.7914 22.969 0.0397 1.8047-0.6497 7.2891-1.5319 12.188-0.88224 4.8984-1.8 10.277-2.0394 11.953-0.45203 3.1636-2.2281 4.2876-2.2219 1.4062 0.002-0.90235 1.4409-12.82 3.1978-26.484 1.7568-13.664 3.4661-28.43 3.7985-32.812 0.33233-4.3828 1.2058-13.031 1.9409-19.219 1.5533-13.072 2.9881-33.71 3.7225-53.541 0.28432-7.6777 0.70642-15.225 0.93797-16.772 0.23155-1.5469 0.66844-10.512 0.97085-19.922 0.61663-19.187 1.0536-18.166-6.6032-15.421l-4.6875 1.6806-0.20375 8.3938c-0.62147 25.603-2.1849 55.613-3.9049 74.956-0.55021 6.1875-1.2522 14.836-1.56 19.219-0.30777 4.3828-0.9588 11.977-1.4467 16.875-0.48793 4.8984-1.3152 13.969-1.8384 20.156-0.52319 6.1875-1.5903 15.891-2.3713 21.562-0.78104 5.6719-1.8346 13.688-2.3413 17.812-1.2913 10.513-1.6368 11.719-3.3571 11.719-1.6379 0-1.5936-1.0138 0.67484-15.469 0.56643-3.6094 1.1576-8.4609 1.3138-10.781 0.15617-2.3203 0.72506-8.6484 1.2642-14.062 0.53915-5.4141 1.433-15.328 1.9864-22.031 0.97032-11.754 2.0581-23.869 3.8298-42.656 0.78985-8.3754 1.8329-27.5 3.5793-65.625 0.41332-9.0234 1.1106-17.212 1.5495-18.198 0.70097-1.5735 0.52228-1.703-1.4695-1.0654-1.2471 0.39923-3.8572 0.93396-5.8001 1.1883-5.8717 0.7686-6.1615 1.8364-6.2709 23.107-0.0966 18.771-1.0384 39.321-2.9916 65.28-0.56256 7.4766-1.1627 16.547-1.3337 20.156-0.17097 3.6094-0.76303 10.781-1.3157 15.938-3.6187 33.762-4.9223 47.183-5.4825 56.442-0.56694 9.3705-1.8291 13.927-3.4175 12.339-0.25822-0.2582-0.0788-5.2926 0.3986-11.187 3.1137-38.444 3.9278-48.743 4.1822-52.906 0.15755-2.5781 0.76713-8.9062 1.3546-14.062 1.6922-14.853 3.8708-55.03 4.3971-81.094 0.26554-13.148 0.64234-25.513 0.83732-27.476 0.3363-3.3864 0.22617-3.5551-2.1417-3.2812-1.6718 0.19339-2.3789 0.75316-2.1409 1.695 0.44719 1.7701 0.1044 39.569-0.36575 40.329-0.19074 0.30862-0.5791 7.6692-0.86304 16.357-0.28393 8.6876-1.1485 24.694-1.9212 35.57-1.8386 25.878-1.8759 26.354-4.6327 59.15-2.4683 29.364-2.8367 37.236-1.7914 38.281 1.1838 1.1838 5.8066 0.622 7.318-0.88944zm13.34-156.69c0.60657-29.752 1.0599-34.307 3.4607-34.769 2.7595-0.53144 1.104 53.315-1.7828 57.986-1.8051 2.9208-2.1215-1.4568-1.6779-23.217zm32.418 147.33c3.2071-1.3385 6.6749-3.1884 7.7061-4.111 1.0312-0.92258 2.9297-1.988 4.2188-2.3676 5.1273-1.5099 18.322-9.8378 15.586-9.8378-0.31937 0-3.8515 1.7678-7.8492 3.9284-9.9293 5.3665-25.471 12.947-26.545 12.947-0.48385 0-0.87973 0.42187-0.87973 0.9375 0 1.4275 1.4074 1.1562 7.7626-1.4961zm-286.61-4.6c-1.2076-9.6823-1.4656-12.72-1.9905-23.438-0.303-6.1875-0.96268-12.851-1.466-14.808-2.1149-8.2243-2.7723-147.95-0.7141-151.8 1.2589-2.3523 0.28538-3.5525-2.8815-3.5525-3.3943 0-5.2556 88.845-2.73 130.31 2.5187 41.354 2.9997 48.007 4.2195 58.359 0.42671 3.6213 0.25354 4.4531-0.92701 4.4531-1.87 0-2.5315-4.6758-4.8409-34.219-2.2268-28.487-2.9615-151.62-0.94857-158.99 0.63057-2.3074 0.35791-2.5275-5.6402-4.5536-3.4666-1.1709-8.2486-3.2679-10.627-4.6598-4.8086-2.8145-16.795-8.5182-17.901-8.5182-2.7725 0-2.48 140.44 0.3085 148.12 0.2805 0.77344 0.96524 8.1562 1.5217 16.406 1.1691 17.334 2.5087 25.563 4.5437 27.913 1.9823 2.2885 3.2824 0.64875 2.0519-2.5878-3.1403-8.2595-7.6051-86.513-6.9544-121.89 0.4643-25.242 1.3471-48.513 1.9282-50.828 1.3832-5.5112 1.8755 0.37923 1.5612 18.68-0.35563 20.703-0.24842 73.045 0.16474 80.43 0.12981 2.3203 0.71807 13.078 1.3072 23.906 0.58916 10.828 1.2911 20.757 1.56 22.064 0.26881 1.307 0.50709 4.471 0.52952 7.0312 0.08245 9.4148 2.686 26.042 4.3693 27.903 1.5317 1.6937 7.8303 5.3456 9.22 5.3456 0.63459 0 0.23017-6.2695-1.5118-23.438-3.7035-36.499-3.7207-163.16-0.02248-165.45 1.3617-0.84159 1.912 7.2224 1.4061 20.606-2.0294 53.684 0.67129 150.55 4.7334 169.77 0.34978 1.655 8.5979 7.8199 10.595 7.9191 0.35246 0.0175 2.3283 0.84693 4.3908 1.8432 5.1789 2.5016 5.3394 2.4223 4.7449-2.3438zm-14.882-5.84c-5.352-9.09-9.385-184.07-4.358-189.1 0.49597-0.49596 0.91086-0.71192 0.92199-0.47989 0.01113 0.23204 0.02009 23.625 0.01992 51.984-0.000293 49.223 0.82486 78.482 2.9084 103.12 0.52314 6.1875 1.0695 14.015 1.2141 17.395 0.14464 3.3796 0.55812 8.5071 0.91886 11.394 0.58486 4.6811-0.32994 7.8778-1.6253 5.6793zm-15.953-8.46c-0.878-1.47-2.392-11.32-2.915-18.98-2.5962-37.975-3.4798-57.766-3.9154-87.701-0.27797-19.103-0.57808-35.345-0.66692-36.094-0.08883-0.74903 0.38179-9.3775 1.0458-19.174 0.66404-9.7969 1.2967-19.711 1.4059-22.031 0.16602-3.5276 0.50574-4.2188 2.0736-4.2188 1.857 0 1.8706 0.47321 1.4196 49.219-0.5424 58.625-0.58416 55.772 1.3516 92.344 0.84604 15.984 1.6843 32.227 1.8627 36.094 0.17843 3.8672 0.41892 7.4531 0.53441 7.9688 0.59484 2.6557-1.0187 4.5497-2.1964 2.5781zm-11.879-187.26c0-2.3203 0.42188-4.2188 0.9375-4.2188s0.9375 1.8984 0.9375 4.2188c0 2.3203-0.42188 4.2188-0.9375 4.2188s-0.9375-1.8984-0.9375-4.2188zm320.86 192.13c1.872-8.9231 2.9848-17.993 6.7794-55.253 1.3128-12.891 2.8511-27.023 3.4185-31.406 0.56741-4.3828 1.1681-10.711 1.3348-14.062 0.16671-3.3516 0.78139-12.844 1.366-21.094 2.7213-38.407 2.7614-58.593 0.11631-58.594-1.3604-0.00045-1.4975 1.422-1.2103 12.554 0.31463 12.196-2.8165 69.381-4.5228 82.602-0.46583 3.6094-1.326 11.625-1.9116 17.812-0.58553 6.1875-1.6809 14.534-2.4341 18.548-0.75323 4.014-1.151 7.6518-0.884 8.0838 0.47332 0.76583-0.46465 10.262-2.4161 24.462-0.53147 3.8672-1.3011 9.5625-1.7102 12.656-0.40916 3.0938-1.0643 7.2612-1.4558 9.2611-0.55373 2.8282-0.43593 3.5441 0.53015 3.222 0.71028-0.23676 1.9946-4.0012 2.9998-8.7923zm5.1617 3.5748c1.7725-6.1761 2.9312-13.532 3.9506-25.078 0.54626-6.1875 1.401-14.625 1.8995-18.75 2.1071-17.438 3.792-33.586 4.6953-45 0.5305-6.7031 1.1622-13.242 1.4038-14.531 1.1164-5.9572 5.1512-69.258 5.1512-80.816 0-2.7057-1.2653-3.2786-3.75-1.6981-1.1563 0.73552-1.199 1.229-0.24044 2.7757 1.3438 2.1683 1.0446 13.79-1.1356 44.114-2.6084 36.28-3.3979 45.477-4.2913 49.993-0.49229 2.4886-0.8938 6.2854-0.89223 8.4375 0.002 2.1521-0.61318 9.1863-1.3661 15.632-0.75292 6.4453-2.0266 18.258-2.8304 26.25-1.5118 15.033-3.8508 32.544-5.1654 38.672-0.55178 2.5723-0.44337 3.5156 0.40403 3.5156 0.63699 0 1.6122-1.582 2.1671-3.5156zm-320.37-0.68c-0.65224-0.78591-2.0834-1.4261-3.1805-1.4227-1.77 0.006-1.6822 0.21208 0.77981 1.835 3.0577 2.0156 4.2462 1.8115 2.4007-0.41226zm327.31-3.8469c0.33368-2.5373 1.7035-14.316 3.0441-26.176 1.3406-11.859 2.9464-24.727 3.5685-28.594 0.62205-3.8672 1.0486-8.5078 0.94788-10.312-0.10071-1.8047 0.26356-6.2344 0.80951-9.8438 0.54596-3.6094 1.5764-13.102 2.2898-21.094 0.71346-7.9922 1.7509-19.382 2.3055-25.311 3.567-38.134 4.8041-64.689 3.0134-64.689-2.4716 0-4.1403 2.5413-3.0304 4.6152 1.688 3.154-1.7406 58.133-5.5877 89.604-0.50427 4.125-1.3104 12.821-1.7915 19.324-0.48104 6.5034-1.303 14.308-1.8266 17.344-1.1409 6.6144-2.8248 23.103-3.4838 34.113-0.26232 4.3828-0.92103 10.711-1.4638 14.062-2.0784 12.834-2.0562 12.447-0.68979 11.996 0.73546-0.2429 1.5484-2.4047 1.8948-5.0387zm5.653-0.15304c-0.16654-1.6562 0.13843-4.392 0.67771-6.0795 1.88-5.883 7.5406-48.805 9.4922-71.975 0.45602-5.4141 1.2667-15.117 1.8015-21.562 0.5348-6.4453 1.6066-18.469 2.3817-26.719 2.9142-31.017 4.3907-61.529 3.0435-62.896-1.8382-1.8654-2.5912 2.2759-3.0062 16.534-0.24693 8.4835-1.1064 22.596-1.9099 31.362-0.8035 8.7656-1.6618 19.523-1.9073 23.906-0.24551 4.3828-1.0831 14.719-1.8613 22.969-1.5886 16.842-1.751 18.392-3.7804 36.094-0.79803 6.9609-1.5985 14.344-1.7787 16.406-0.33228 3.8018-0.88239 7.7644-4.2299 30.469-2.2813 15.473-2.2766 15.21-0.26066 14.82 1.2374-0.23937 1.5662-1.0574 1.3378-3.3286zm7.445-1.5639c0.061-0.56176 0.0646-1.3271 0.007-1.7008-0.0567-0.37366 0.5531-3.7487 1.3551-7.5 2.898-13.555 10.327-81.586 13.542-124.01 2.3765-31.361 2.7809-38.328 2.7885-48.047 0.007-8.7537-0.23087-10.547-1.398-10.547-1.0273 0-1.4099 1.0738-1.4199 3.9844-0.0511 14.946-3.8819 65.973-7.5132 100.08-6.1302 57.574-7.7429 70.982-9.3592 77.812-3.4644 14.642-3.4025 13.359-0.58224 12.074 1.3576-0.61853 2.5182-1.5842 2.5793-2.146zm-351.68-1.43c0-0.48111-1.8984-2.4304-4.2188-4.3317-2.795-2.29-4.219-4.19-4.219-5.63 0-2.9849-1.525-3.6686-4.2298-1.8963-2.1412 1.403-2.373 4.2977-0.34412 4.2977 0.46774 0 3.1812 1.8984 6.0299 4.2188 5.1081 4.1606 6.9815 5.0579 6.9815 3.344zm359.66-2.6552c0.58518-0.37882 1.2761-2.5872 1.5355-4.9075 1.6591-14.844 3.4872-28.292 3.947-29.036 0.53651-0.86811 2.0398-13.279 2.8988-23.932 0.58404-7.2432 2.9418-34.531 4.1311-47.812 0.5079-5.6719 1.3667-16.43 1.9086-23.906 0.54181-7.4766 1.4032-18.234 1.9143-23.906 1.3986-15.523 1.5768-40.051 0.29423-40.495-0.73195-0.25335-1.2455 3.6079-1.671 12.565-0.9548 20.098-2.3531 40.631-3.8493 56.524-1.5586 16.556-2.6917 29.24-4.6483 52.031-0.75249 8.7656-2.03 20.789-2.8389 26.719-0.80891 5.9297-1.876 14.367-2.3713 18.75-0.4953 4.3828-1.464 12.504-2.1527 18.047-1.2393 9.9746-1.1693 10.702 0.90219 9.3606zm17.217-6.2584c0-0.74301-0.39273-1.5936-0.87272-1.8903-1.1146-0.68886-2.2356 1.0667-1.471 2.3037 0.86209 1.3949 2.3438 1.1335 2.3438-0.41342zm-9.0286-3.5606c0.30745-1.6815 1.0015-7.276 1.5423-12.432 0.54084-5.1562 1.8137-14.485 2.8285-20.731 1.0149-6.2459 1.8498-13.629 1.8554-16.406 0.006-2.7775 0.84477-12.433 1.8648-21.456 1.02-9.0234 1.8695-19.148 1.8877-22.5 0.0182-3.3516 0.44841-7.8939 0.95599-10.094s1.1007-7.0517 1.3181-10.781c0.7058-12.11 3.382-38.545 3.9559-39.076 0.97999-0.90736-3.1924 62.964-4.8349 74.014-0.26826 1.8047-0.90106 7.9219-1.4062 13.594-0.50514 5.6719-1.5706 16.219-2.3676 23.438-0.79701 7.2188-1.6067 17.767-1.7994 23.44-0.19265 5.6733-0.65701 11.95-1.0319 13.949-0.52693 2.8088-0.40096 3.5399 0.555 3.2212 2.0207-0.67356 6.6586-32.178 8.4324-57.281 0.53861-7.6221 1.1636-14.372 1.3888-15 0.51913-1.4473 2.2739-21.01 3.2559-36.298 0.41401-6.4453 1.2302-18.68 1.8138-27.188 2.6376-38.453 3.3079-56.81 2.1018-57.555-1.9453-1.2023-2.7318 2.8463-3.3497 17.243-0.66833 15.571-1.3446 21.227-2.3902 19.992-0.35992-0.42524-0.41252-7.248-0.11691-15.162 0.53363-14.285 0.29742-15.791-2.3199-14.786-1.0973 0.42109-1.366 3.0282-1.3855 13.442-0.0133 7.106-0.44209 17.139-0.95284 22.295-2.0129 20.32-2.9163 30.239-3.2444 35.618-0.18846 3.0899-0.56823 6.8868-0.84393 8.4375-0.27569 1.5507-0.76747 7.0383-1.0928 12.195-0.32538 5.1562-0.72498 9.5938-0.88799 9.8613-0.16301 0.26745-0.56178 5.33-0.88615 11.25-0.32435 5.92-1.0293 14.139-1.5664 18.264-0.53717 4.125-1.3206 10.242-1.7409 13.594-0.42032 3.3516-1.1893 8.8359-1.7089 12.188-2.3864 15.394-2.2289 43.834 0.17009 30.713zm-365.93-13.88c-4.042-37.4-5.226-61.07-5.666-113.39-0.10639-12.633 0.06652-24.445 0.38422-26.25 0.31771-1.8047 0.95753-9.3124 1.4218-16.684 0.4643-7.3714 1.3152-13.97 1.8908-14.664 0.82474-0.99375-0.20185-2.1792-4.8429-5.5922-3.2392-2.3821-6.9441-5.1646-8.2332-6.1832-3.2024-2.5307-3.4901-2.3969-3.523 1.6384-0.015757 1.9336-0.48291 8.5781-1.0381 14.766-2.0232 22.547-1.8586 102.07 0.24642 119.06 0.25545 2.0625 0.71507 10.765 1.0214 19.339 0.74088 20.739 5.1683 41.985 5.1683 24.802 0-4.2503 1.1424-5.6832 2.2434-2.8139 0.31298 0.8156 0.56905 3.7965 0.56905 6.6241 0 5.6457 1.1866 8.7679 3.3321 8.7679 0.96144 0 1.2412-0.65154 0.90584-2.1094-5.2672-22.895-9.228-175.26-4.7445-182.52 3.3054-5.3483 5.1453 4.4207 3.2549 17.282-2.9671 20.188 0.2377 133.94 4.5678 162.13 0.47012 3.0606 0.6648 6.2911 0.43263 7.179-0.38372 1.4673 3.1684 6.1829 4.0177 5.3336 0.19814-0.19815-0.43555-7.7216-1.4082-16.719zm-13.482-9.0727c-0.70836-1.1461-2.518-19.156-2.0078-19.982 0.22318-0.36111-0.028153-4.2041-0.55851-8.5399-0.63737-5.2106-0.65099-8.6683-0.040192-10.199 1.1115-2.7849 0.98979-3.7092 1.9784 15.028 0.39446 7.4766 1.1917 15.679 1.7715 18.229 0.96117 4.2254 0.23523 7.694-1.1434 5.4633zm-3.761-60.02c-0.7138-10.78-0.8277-51.39-0.1422-50.7 0.26002 0.26002 0.69785 8.8733 0.97296 19.141 0.27511 10.267 0.74071 23.625 1.0347 29.683 0.65411 13.481-0.98754 15.132-1.8654 1.875zm0.1237-95.15c0.3576-15.435 0.57558-16.672 2.5833-14.665 1.1949 1.1948 1.2214 3.1078 0.19993 14.386-1.5848 17.497-3.1859 17.657-2.7832 0.27836zm3.0113 173.23c0-1.1999-2.6521-3.3142-4.1571-3.3142-0.74191 0-0.66498 3.3029 0.094617 4.0625 1.1659 1.1659 4.0625 0.63242 4.0625-0.74827zm206.48-140.24c1.603 0.0463 2.5781-0.41485 2.5781-1.2192 0-2.3665 28.138-3.8025 29.556-1.5084 1.155 1.8689 38.273-1.2219 44.843-3.734 2.2906-0.87583 2.5037-1.2372 1.4665-2.4869-0.97818-1.1786-0.9827-1.6048-0.0233-2.1977 0.92408-0.57112 0.87384-0.85699-0.22473-1.2786-2.1156-0.81184-8.1173 1.1154-8.1173 2.6067 0 2.404-12.707 4.1627-15.858 2.1949-1.4489-0.90487-2.3787-0.95576-3.595-0.19678-0.9375 0.58502-2.4442 0.70958-3.5156 0.29067-1.0312-0.40321-4.4062-0.56243-7.5-0.35381-18.166 1.225-25.781 1.3601-25.781 0.45748 0-0.56591 2.6251-0.97981 6.3281-0.99777 3.4805-0.0169 9.2812-0.43192 12.891-0.92234 3.6094-0.49041 10.57-1.321 15.469-1.8457 9.6141-1.0299 33.827-5.6611 42.188-8.0693 2.8359-0.81685 6.8438-1.8108 8.9062-2.2088 18.19-3.5099 53.906-16.671 53.906-19.864 0-1.081-1.5315-1.0226-3.5284 0.13453-2.2838 1.3234-23.164 9.2657-28.815 10.961-2.5781 0.77325-6.3947 1.9992-8.4813 2.7244-2.0866 0.72518-8.6256 2.3289-14.531 3.5638-5.9056 1.2349-13.691 2.9545-17.3 3.8213-14.291 3.4321-21.491 4.2957-66.094 7.9272-15.1 1.2294-33.639 1.2516-42.354 0.0506-3.7756-0.52031-9.396-1.1226-12.49-1.3384-9.0131-0.6288-21.084-2.2583-31.054-4.1923-5.0921-0.9877-11.157-2.0594-13.477-2.3816-2.3203-0.32217-7.8047-1.651-12.188-2.953-4.3828-1.302-11.766-3.3586-16.406-4.5702-16.815-4.3901-42.333-14.027-56.25-21.243-19.518-10.12-32.437-18.117-37.016-22.915-5.6796-5.951-6.5779-6.2057-6.5779-1.865 0 4.3688 1.3708 7.652 4.3461 10.409 1.8978 1.7588 2.1231 2.3078 0.94705 2.3078-2.4586 0-1.7923 2.4791 1.3038 4.8506 1.5658 1.1994 4.2026 3.2389 5.8594 4.5324 9.0925 7.0982 22.107 14.411 35.825 20.131 4.6406 1.935 9.7031 4.0578 11.25 4.7174 13.038 5.5599 52.281 17.274 65.625 19.589 5.1562 0.89457 13.805 2.5165 19.219 3.6042 18.11 3.6387 26.641 4.3402 46.875 3.8548 10.57-0.25359 20.379-0.42755 21.797-0.38659zm-37.73-2.51c-2.8359-0.11618-8.0021-0.65313-11.48-1.1932-3.4783-0.54009-9.1736-1.4257-12.656-1.968-3.4827-0.54229-9.2853-1.5643-12.895-2.2712-3.6094-0.70686-10.992-2.143-16.406-3.1915-5.4141-1.0485-13.641-2.9976-18.281-4.3315-4.6406-1.3338-10.355-2.9694-12.699-3.6346-2.3441-0.66521-5.164-1.6922-6.2665-2.2823-1.1025-0.59002-2.8243-1.0728-3.8263-1.0728s-2.347-0.63281-2.9889-1.4062c-1.6482-1.986-0.92967-1.8454 12.188 2.3841 12.923 4.167 23.091 6.5766 39.375 9.3311 5.9297 1.003 14.119 2.7035 18.198 3.7787 7.3308 1.9323 18.141 3.2792 35.005 4.3613 15.022 0.96397 9.1682 2.1693-7.2656 1.496zm-108.28-25.22c-3.6094-1.2739-7.4062-2.5669-8.4375-2.8734-1.0312-0.30649-2.2969-0.84949-2.8125-1.2067-0.51562-0.35717-3.6797-1.6508-7.0312-2.8748-12.586-4.5964-43.128-23.393-38.01-23.393 0.57885 0 9.7832 5.4385 12.698 7.5024 3.3464 2.3699 15.354 8.9239 22.5 12.281 3.3516 1.5744 7.3594 3.5074 8.9062 4.2954 1.5469 0.78808 5.9766 2.5676 9.8438 3.9544 6.8651 2.462 11.72 4.7687 9.8438 4.6766-0.51562-0.0253-3.8906-1.0882-7.5-2.3621zm-38.907-23.32c-4.6996-2.4604-5.5569-3.2007-3.747-3.2358 1.2907-0.025 4.4236 1.4311 6.9619 3.2358 5.7914 4.1175 4.65 4.1175-3.2149 0zm-13.125-8.3062c-5.16-3.7959-7.3421-6.225-5.592-6.225 1.1807 0 10.803 7.0094 11.77 8.5738 1.1297 1.828-2.2438 0.54537-6.178-2.3488zm222.19 58.47c0-0.51563-1.2656-0.9375-2.8125-0.9375s-2.8125 0.42187-2.8125 0.9375c0 0.51562 1.2656 0.9375 2.8125 0.9375s2.8125-0.42188 2.8125-0.9375zm90.938-13.638c4.3828-1.1924 9.8672-2.7941 12.188-3.5593 2.3203-0.76524 6.5391-2.0976 9.375-2.9607 12.96-3.9445 45.36-22.029 39.467-22.029-1.0382 0-11.188 5.2047-15.168 7.7783-1.247 0.80628-7.7517 3.8746-14.455 6.8186-6.7031 2.944-12.82 5.8639-13.594 6.4887-1.458 1.1778-17.752 5.6894-25.544 7.0729-5.1387 0.91235-6.5798 1.6174-5.8198 2.8472 0.59367 0.96058 1.7874 0.74422 13.552-2.4564zm-96.894-0.94483c1.7634-0.35401 1.9239-0.79526 1.2982-3.5693-0.39265-1.741-0.39375-8.8103-0.003-15.71 0.76324-13.457 0.37236-61.24-0.56039-68.505-0.63979-4.9834 0.21502-8.9514 1.6247-7.5417 1.9057 1.9057 2.951 21.761 3.0377 57.702l0.0901 37.324 7.5-0.58506c4.125-0.32178 13.195-1.5963 20.156-2.8322 6.9609-1.2359 13.834-2.3701 15.274-2.5202l2.6178-0.27307 0.45787-13.896c0.25183-7.6426 0.0129-20.932-0.53095-29.531-1.6078-25.422-2.1806-52.33-1.0913-51.261 1.887 1.8533 3.3652 27.592 4.2987 74.85 0.19385 9.8137 0.7312 17.126 1.3003 17.695 1.1508 1.1508 9.2202 0.15041 10.086-1.2503 1.2471-2.0179 0.007-53.538-1.5092-62.701-0.46926-2.8359-0.96996-11.59-1.1126-19.453-0.2897-15.963 0.116-15.239-7.2907-13.004-2.3203 0.70009-8.0156 1.5647-12.656 1.9214-6.9137 0.53139-14.531 1.9592-14.531 2.7237 0 0.0923 0.42367 1.6416 0.94148 3.4429 1.5332 5.3333 3.5193 86.113 2.2017 89.547-1.4737 3.8405-1.9503-2.3049-2.0977-27.05-0.18807-31.575-0.86777-50.997-1.9922-56.927-0.45449-2.3965-0.6016-5.2168-0.32689-6.2673 0.71622-2.7389-0.67371-3.1999-7.5293-2.4975-8.4589 0.86664-8.6561 1.4775-6.667 20.658 1.015 9.7871 1.558 23.692 1.5879 40.656 0.0588 33.41 0.0143 34.688-1.2068 34.688-0.69393 0-0.96416-3.4155-0.83446-10.547 0.3538-19.452-0.83332-62.38-1.8855-68.183-0.57281-3.1588-0.7595-7.6236-0.41488-9.9217 0.99402-6.6286-8.9279-9.5074-14.876-4.3161-1.3688 1.1948-2.0394 1.2615-3.5015 0.34833-1.205-0.75252-6.3191-1.111-15.325-1.0742-7.4343 0.0304-18.189-0.24035-23.899-0.60169-12.714-0.80448-11.089-7.1521-12.081 47.207-0.85113 46.669-1.0737 48.942-4.5138 46.087-1.8174-1.5083-1.36-23.841 1.7972-87.759l0.33237-6.7289-4.7767-0.5749c-12.547-1.5102-23.73-3.6216-25.659-4.8449-1.1728-0.74359-3.7244-1.258-5.6704-1.1432-1.946 0.11482-4.1486-0.16853-4.8947-0.62967-0.74612-0.46113-3.046-0.90837-5.1109-0.99386-2.0648-0.0855-5.4418-0.58838-7.5043-1.1176-15.117-3.8784-23.55-6.3234-30.304-8.7856-10.037-3.659-10.041-3.6497-12.31 28.735-0.50589 7.2188-1.3429 18.609-1.86 25.312-0.51711 6.7031-0.9525 16.882-0.96754 22.62-0.02743 10.464-0.90262 13.376-3.5318 11.751-1.4808-0.91516-1.6907-23.687-0.34282-37.183 1.6125-16.145 2.8486-29.121 3.8299-40.204 0.55981-6.3221 1.463-11.057 2.3744-12.448 1.3998-2.1358 1.2097-4.0669-0.40009-4.0669-2.5532 0-36.898-17.83-40.394-20.97-3.0203-2.7129-9.992-7.1545-11.23-7.1545-0.52668 0-0.9576-0.37674-0.9576-0.8372 0-1.2129-2.3241-1.919-3.6399-1.1059-0.61934 0.38277-2.1421 6.889-3.3839 14.458-1.2418 7.5693-2.5669 14.263-2.9446 14.874-1.6445 2.6608-5.8534 56.305-4.6615 59.411 1.1988 3.1241 2.447-0.0577 2.5358-6.4647 0.05139-3.7078 0.4127-7.7962 0.8029-9.0853l0.70946-2.3438 0.73415 2.6944c0.40378 1.4819 0.50013 6.6169 0.21411 11.411-0.44863 7.5197-0.29554 8.9198 1.1149 10.196 2.7526 2.4911 2.8939 1.9088 2.8825-11.88-0.01199-14.463 2.0665-40.051 4.1693-51.328 0.72113-3.8672 1.815-10.617 2.4308-15 1.5968-11.365 3.2078-13.59 5.769-7.9688 0.58734 1.2891 1.8439 2.3438 2.7924 2.3438 2.415 0 2.3362 10.298-0.19922 26.031-2.391 14.837-3.4794 27.086-4.2255 47.553-0.58711 16.106-0.75554 17.353-2.3436 17.353-1.6702 0-0.46166-31.918 1.8636-49.219 2.8888-21.494 4.0745-35.273 3.1175-36.23-1.6878-1.6878-3.0508 0.0396-3.0508 3.8663 0 1.9904-0.6294 6.0788-1.3987 9.0853-1.6301 6.371-2.9205 20.502-4.2658 46.716-0.52925 10.312-1.3303 19.633-1.7801 20.711-1.0573 2.5358 6.5615 9.7574 10.294 9.7574 0.33405 0 0.88274-6.6445 1.2193-14.766 0.33656-8.1211 1.4829-22.148 2.5474-31.172 1.0645-9.0234 2.3194-21.047 2.7887-26.719 1.0588-12.797 1.6803-16.406 2.8251-16.406 1.3986 0 1.0298 8.5776-1.028 23.906-2.0658 15.389-4.5701 48.05-4.6126 60.158l-0.02686 7.6579 3.3306 2.0584c4.104 2.5364 5.061 1.8638 2.3076-1.6217-2.7025-3.421-2.234-15.352 2.3668-60.284 3.1287-30.555 3.3379-31.563 6.3162-30.42 2.0103 0.77144 2.2807 2.6135 1.3686 9.3259-0.42038 3.0938-0.93185 7.3125-1.1366 9.375s-0.81476 7.9688-1.3556 13.125c-1.8429 17.57-2.9716 33.731-3.2837 47.015-0.1714 7.2958-0.56374 13.673-0.87186 14.172-1.0767 1.7421 9.4862 7.9548 21.1 12.41 2.7579 1.058 5.8581 2.315 6.8894 2.7933 4.2325 1.963 9.6196 4.0036 13.594 5.1492 13.375 3.8555 18.763 5.1156 19.94 4.6638 0.72689-0.27894 1.8456 0.12419 2.486 0.89582s3.1338 1.6683 5.5408 1.9926c2.4071 0.32428 6.2749 1.176 8.5952 1.8927s12.234 2.8183 22.031 4.6701c9.7969 1.8519 20.133 3.8086 22.969 4.3484 12.341 2.3489 59.65 3.8306 68.106 2.1331zm-26.18-13.55c-0.82427-13.111-0.77663-25.272 0.12121-30.938 1.917-12.096 2.8329 13.618 1.2021 33.75l-0.64551 7.9688-0.67783-10.781zm18.82 7.9688c-0.35723-1.0312-0.59246-19.594-0.52277-41.25 0.10484-32.571 1.1307-46.032 1.5314-20.094 0.0603 3.9014 0.55834 9.5211 1.1068 12.488 0.69356 3.7518 0.69904 5.7541 0.018 6.5747-0.60057 0.72363-1.0769 9.4899-1.2316 22.668-0.13881 11.818-0.54466 20.644-0.90188 19.613zm-37.656-16.606c0.18662-9.4292 0.71135-18.831 1.1661-20.894 0.55323-2.5093 0.77933 3.0499 0.68341 16.803-0.0969 13.891-0.47484 20.664-1.1661 20.894-0.72191 0.24064-0.92293-4.7016-0.68341-16.803zm9.7713 17.075c-1.2806-2.7699-0.2535-38.551 1.0403-36.239 1.042 1.862 1.0304 17.207-0.0214 28.271-0.4412 4.6406-0.89971 8.2266-1.0189 7.9688zm18.38-1.56c-0.81087-0.81087-0.58095-43.651 0.28345-52.812l0.66337-7.0312 0.28448 5.625c0.15646 3.0938 0.26779 9.2109 0.24741 13.594-0.11705 25.173-0.34399 41.25-0.58227 41.25-0.1493 0-0.55269-0.28125-0.89644-0.625zm38.433-7.8125c-0.3389-4.8984-0.83501-21.352-1.1025-36.562-0.26746-15.211-0.69825-31.664-0.9573-36.562-0.57959-10.959 0.79071-9.6006 2.3639 2.3438 1.3043 9.9031 2.165 71.618 1.0655 76.406-0.62742 2.7323-0.85655 1.7913-1.3696-5.625zm16.118 7.0312c-0.59679-0.92522-1.5143-27.523-2.1879-63.422-0.1901-10.132-0.63665-20.363-0.99233-22.734-0.70462-4.6987 0.81594-6.1759 1.7853-1.7343 2.0586 9.4329 3.352 90.925 1.395 87.891zm-111.48-7.97c-0.22838-4.3828-0.20033-10.078 0.0623-12.656l0.47757-4.6875 0.54729 6.5625c0.30099 3.6094 0.27294 9.3047-0.0624 12.656l-0.60961 6.0938-0.41524-7.9688zm-10.549 5.8594c-1.1148-1.9549-1.515-7.7956-0.68404-9.9812 0.51821-1.363 1.1258-8.2706 1.3503-15.35 0.57273-18.065 0.45712-16.898 1.4981-15.117 0.49805 0.85209 0.71394 8.5784 0.49773 17.812-0.21001 8.9692-0.40771 17.89-0.43933 19.823-0.0519 3.1779-1.1919 4.6203-2.2228 2.8125zm-9.0973-17.156c-0.007-8.9976 0.42107-22.266 0.95108-29.484 0.53002-7.2188 1.2128-19.767 1.5173-27.885 0.31125-8.2983 0.92095-14.533 1.3927-14.242 1.2292 0.75969 0.95738 26.534-0.39548 37.502-0.64026 5.1908-0.94083 10.378-0.66792 11.527 0.82396 3.4689-0.78141 36.938-1.8216 37.978-0.65954 0.65954-0.96737-4.1965-0.97599-15.396zm137.5 2.1741c-2.1712-49.576-2.4823-76.502-0.86537-74.885 1.6053 1.6054 3.3395 86.863 1.7981 88.404-0.17952 0.17952-0.59927-5.9043-0.93277-13.52zm14.857 12.866c-0.36343-0.58804-0.79778-11.69-0.96521-24.672-0.16744-12.981-0.76984-32.796-1.3387-44.033-0.56884-11.237-0.76194-20.871-0.4291-21.41 2.6023-4.2106 3.9261 13.159 4.3086 56.532 0.27706 31.418 0.052 36.216-1.5756 33.582zm-112.5-24.37c0.38121-12.117 0.96677-25.406 1.3012-29.531l0.60813-7.5 0.69973 8.2749c0.38485 4.5512 0.47246 8.6426 0.19468 9.0921-0.27779 0.44946-0.74145 9.593-1.0303 20.319-0.30978 11.501-0.92352 19.886-1.4959 20.439-0.66888 0.64606-0.75515-5.9113-0.27751-21.094zm-69.932 18.168c-1.222-1.4724-0.19542-32.387 1.9886-59.886 0.53237-6.7031 1.2732-16.191 1.6462-21.084 0.5501-7.216 0.97304-8.9529 2.2388-9.1939 3.095-0.58939 3.004 6.061-0.67041 49.028-0.83781 9.7969-1.5918 23.186-1.6754 29.754-0.15396 12.082-0.91333 14.532-3.5277 11.382zm21.241-20.343c0.49495-23.662 2.7686-60.518 3.7923-61.474 1.0035-0.93735-0.33861 38.532-1.4309 42.08-0.55456 1.8013-1.0503 10.872-1.1017 20.156-0.0514 9.2847-0.46095 17.936-0.91011 19.225-0.48334 1.3872-0.626-6.7707-0.34954-19.987zm-31.39 17.17c-1.7411-4.2644 0.69861-52.709 2.7582-54.768 0.60059-0.60059 0.91919 1.2388 0.91919 5.3067 0 3.4242-0.38875 6.4662-0.86391 6.7598-0.47514 0.29366-0.94488 7.8068-1.0439 16.696-0.15257 13.704-1.1011 27.643-1.7696 26.006zm21.104-10.078c0.90417-20.402 1.5203-27.433 2.4546-28.01 0.95054-0.58747 0.22084 32.838-0.79569 36.448-1.2757 4.5304-2.0574 0.55454-1.6589-8.4375zm-31.798 6.65c-0.85035-0.85034-0.68535-16.328 0.30814-28.906 0.448-5.6719 1.3147-18.328 1.9261-28.125 0.61133-9.7969 1.6669-19.922 2.3457-22.5l1.2342-4.6875 0.23739 5.1562c0.50846 11.044-0.36677 28.682-1.5686 31.612-0.88513 2.1575-1.2616 8.8195-1.3203 23.363-0.09347 23.16-0.55739 26.693-3.1626 24.088zm-9.4989-4.2874c-1.3481-3.1664 2.1657-62.872 4.7731-81.103 0.23966-1.6758 0.88636-3.0469 1.4371-3.0469 1.3938 0-0.5237 32.511-2.9029 49.219-0.51399 3.6094-0.99038 12.258-1.0587 19.219-0.12916 13.17-0.93468 18.799-2.2486 15.713zm-18.732-5.0644c-0.79349-3.1615 0.06546-23.943 1.9126-46.273 3.0425-36.781 3.7054-42.188 5.1726-42.188 1.7627 0 0.90703 15.957-2.1868 40.781-0.64262 5.1562-1.2979 14.016-1.4562 19.688-0.71402 25.583-1.8099 34.495-3.4422 27.992zm-6.5867-1.2309c-1.6006-2.5898 0.67035-38.939 4.3077-68.949 1.422-11.732 1.5319-12.872 1.6494-17.109 0.08361-3.0144 0.4829-3.9844 1.6402-3.9844 1.2712 0 1.4256 0.67322 0.91392 3.9844-2.0697 13.392-5.3377 54.933-5.5367 70.379-0.17917 13.909-1.0927 18.724-2.9745 15.679zm-6.432-3.49c-1.6686-1.6686-0.1396-36.582 2.8054-64.062 0.80126-7.4766 1.66-16.258 1.9084-19.514 0.41047-5.3818 1.9715-8.1754 3.6373-6.5096 0.50866 0.50866-0.50281 11.963-3.4156 38.68-1.0681 9.7969-2.1832 25.512-2.478 34.922-0.49924 15.937-0.82438 18.118-2.4576 16.484zm150.85-22.812c0.57474-17.093 0.87965-19.648 2.1722-18.204 1.1504 1.2856-0.28335 30.541-1.6047 32.744-0.88252 1.4714-1.0025-1.6033-0.56752-14.54zm-38.518 9.179c-0.33709-1.343-0.14305-3.3198 0.43117-4.3928 0.67833-1.2674 0.86202-5.3211 0.52439-11.572-0.28583-5.2915-0.13319-11.519 0.33918-13.84 0.65397-3.2122 0.87996-0.19274 0.94723 12.656 0.0842 16.082-0.80413 22.877-2.242 17.148zm47.61-16.915c0.13827-11.145 0.56125-17.493 1.1556-17.344 0.51562 0.12977 0.73456 0.65781 0.48652 1.1734-0.24802 0.51562-0.34999 7.6132-0.22658 15.772 0.1294 8.5556-0.16885 15.5-0.70463 16.406-0.63152 1.0681-0.85917-4.058-0.71091-16.008zm-56.467 1.6422c-0.0298-17.737 0.91562-32.344 2.0935-32.344 1.3517 0 0.43932 42.152-0.96391 44.531-0.88434 1.4994-1.1106-0.94224-1.1296-12.188zm-27.73-6.1c0.46189-15.542 1.46-26.147 2.5229-26.804 0.95749-0.59176 0.94052 3.203-0.0947 21.179-1.0686 18.556-2.9414 22.894-2.4282 5.625zm66.136 4.8315c0-12.186 1.2825-23.739 1.9933-17.957 0.82233 6.6901 0.95021 18.634 0.22833 21.328-1.0505 3.9199-2.2216 2.1426-2.2216-3.3716zm-87.113-12.711c-0.86007-1.0363-0.89201-3.0752-0.13359-8.528 0.54818-3.9413 0.9967-9.4558 0.9967-12.254 0-3.0003 0.4131-5.0884 1.0066-5.0884 1.006 0 0.74162 25.752-0.27485 26.768-0.25553 0.25555-0.97324-0.14824-1.5949-0.89731zm-89.917-17.9c-0.01318-2.5781 0.31384-6.5859 0.72671-8.9062 0.70986-3.9894 0.75196-3.862 0.77456 2.3438 0.01314 3.6094-0.31388 7.6172-0.72671 8.9062-0.59156 1.8471-0.75568 1.3505-0.77456-2.3438zm2.0778-21.797c0.27065-0.90234 1.3911-7.3359 2.49-14.297 1.9039-12.061 2.8867-15.195 4.3167-13.765 1.3087 1.3087-4.8538 29.703-6.4465 29.703-0.46876 0-0.63084-0.73828-0.36018-1.6406zm296.88 121.62c0.99432-0.53214 5.9236-1.8191 10.954-2.8599 15.393-3.1849 30.601-8.3108 37.96-12.794 1.9256-1.1733 6.3305-3.1982 9.7886-4.4999 3.4582-1.3016 7.578-3.349 9.1552-4.5496 1.5772-1.2007 4.5551-3.0642 6.6176-4.1412 4.5093-2.3547 14.956-12.002 13.782-12.727-0.45754-0.28277-3.1806 1.5792-6.0512 4.1377s-5.5128 4.6519-5.8716 4.6519c-0.35879 0-2.2503 1.2656-4.2034 2.8125s-3.8782 2.8125-4.278 2.8125c-0.39983 0-4.5579 1.846-9.2401 4.1022-14.389 6.9338-19.389 9.1565-24.731 10.994-2.8271 0.97268-5.608 2.1181-6.1798 2.5453-0.57176 0.42722-3.9927 1.3264-7.602 1.9981-3.6094 0.67172-9.6749 2.2228-13.479 3.4469s-7.6258 2.2256-8.4927 2.2256c-0.86689 0-2.3951 0.6194-3.396 1.3764-2.2824 1.7263 2.1763 2.1229 5.2676 0.46852zm-4.1-12.16c0.91882 0 1.2264-0.53013 0.8607-1.4832-0.31304-0.81577-0.78411-11.468-1.0468-23.672-0.52713-24.488-2.1074-54.272-3.2661-61.555-0.73246-4.6046 0.20385-8.5373 1.798-7.552 2.015 1.2453 5.5691 56.054 5.6758 87.528 0.0201 5.9028 0.0283 5.9207 2.5982 5.625 1.9952-0.22957 2.5026-0.72055 2.2438-2.1716-0.18387-1.0312-0.89986-13.477-1.5911-27.656-0.69126-14.18-1.7072-30-2.2576-35.156-2.1705-20.334-1.971-35.23 0.373-27.845 1.4783 4.6577 5.1172 49.616 5.8425 72.182 0.53631 16.687 0.79451 18.988 2.102 18.727 2.6578-0.53014 1.0742-52.917-2.3351-77.246-1.7486-12.479-1.731-16.286 0.0756-16.286 0.77344 0 1.4173 0.10547 1.4308 0.23437 0.0135 0.12891 0.8593 6.1406 1.8795 13.359 1.2467 8.8213 2.2166 23.821 2.9578 45.746 1.0848 32.087 1.1344 32.617 3.0316 32.344 2.1481-0.30885 2.0699 2.1753 0.95326-30.277-0.48578-14.118-3.6608-54.958-4.5923-59.07-0.47605-2.1016 0.91051-4.9835 1.9146-3.9793 1.8824 1.8824 7.1975 58.338 7.3303 77.861 0.0809 11.888 0.29566 13.807 1.5006 13.406 13.886-4.6129 22.188-7.7297 27.041-10.151l5.9473-2.9676-0.61664-8.9558c-0.33915-4.9257-0.77547-12.964-0.9696-17.862-0.19413-4.8984-1.2583-18.398-2.3648-30-3.1737-33.276-3.197-33.75-1.6557-33.75 2.8278 0 8.6343 57.058 8.1525 80.112-0.20166 9.6484 0.14169 10.021 5.5646 6.0326 3.3666-2.4758 3.9196-3.3301 3.4974-5.402-0.27588-1.3536-0.54862-6.0471-0.6061-10.43-0.23147-17.651-3.271-59.577-5.2503-72.422-0.64994-4.2177-1.9646-4.4349-9.0346-1.4924-7.6406 3.18-7.4845 2.8107-5.9126 13.988 6.596 46.902 6.2965 78.086-0.78444 81.669-6.2558 3.1654-6.1226 3.3493-6.1857-8.5404-0.029-5.457-0.41803-14.141-0.86456-19.297-0.44653-5.1562-1.285-14.859-1.8632-21.562-0.57821-6.7031-1.6657-15.504-2.4167-19.557-0.75095-4.0531-1.3654-9.903-1.3654-13 0-5.3695-0.0979-5.6064-2.1094-5.1069-1.1602 0.28811-5.9062 1.4348-10.547 2.5483-4.6406 1.1134-12.251 3.0363-16.913 4.273-4.6615 1.2367-9.5379 2.2485-10.836 2.2485-4.4272 0-5.4825 1.7306-4.5736 7.5 1.4207 9.0171 3.6286 56.094 3.4411 73.369-0.1469 13.535 0.0529 16.561 1.0678 16.172 0.6867-0.26317 1.892-0.4785 2.6784-0.4785zm30.836-11.425c-0.20894-0.67721-0.87244-9.4578-1.4744-19.513-0.94187-15.731-1.8828-25.923-5.4964-59.531-1.5226-14.161 1.6775-12.894 3.7489 1.4842 3.8674 26.844 5.3964 45.646 5.4593 67.132 0.0271 9.2604-1.0494 14.278-2.2374 10.427zm6.5654-3.7314c-0.22-0.69-0.66-8.85-0.98-18.13-0.61553-17.754-1.3799-27.156-3.7726-46.406-2.5533-20.542-2.6654-22.201-1.5459-22.893 3.4365-2.1239 8.7932 47.431 9.002 83.277 0.0254 4.3686-1.7746 7.1258-2.7072 4.1467zm28.084-26.797c-1.2586-27.291-1.8081-34.041-4.6986-57.718-1.4852-12.165-1.3845-13.766 0.86571-13.766 2.2987 0 2.7721 2.9074 4.7318 29.062 2.3405 31.238 2.9108 58.125 1.2328 58.125-1.1668 0-1.5313-2.6854-2.1317-15.703zm8.5285 22.134c3.1828-1.9107 5.7606-4.5561 4.4389-4.5552-0.44985 0.0003-3.5601 1.707-6.9117 3.7928-4.525 2.816-5.3697 3.6295-3.2812 3.1603 1.5469-0.34756 4.1362-1.4266 5.754-2.3978zm19.766-1.7331c6.0459-5.501 5.1099-8.5921-0.98334-3.2474-2.9116 2.5539-5.2992 4.9599-5.3057 5.3466-0.0274 1.6242 3.4854 0.45166 6.289-2.0992zm-41.352-22.839c-0.53281-18.975-3.3137-50.155-5.2757-59.152-0.44373-2.0347-0.5972-4.0386-0.34104-4.4531 0.53205-0.86088-2.793-1.043-3.6368-0.19921-0.30492 0.30491 0.0421 2.5198 0.7711 4.9219 0.72902 2.4021 1.3388 6.2659 1.3552 8.5862 0.0163 2.3203 0.63984 6.9609 1.3856 10.312 0.80454 3.6158 1.7877 16.959 2.4178 32.812 1.1342 28.537 1.2336 29.531 2.8522 28.53 0.75662-0.46761 0.88945-6.4824 0.47171-21.36zm24.738-5.4002c0-10.244-0.61368-24.43-1.3637-31.526-0.75006-7.0956-1.8141-17.331-2.3645-22.745-1.1544-11.355-1.7443-14.062-3.0644-14.062-0.58904 0-0.72742 1.6889-0.36487 4.4531 2.0305 15.482 4.3955 51.794 4.3199 66.328-0.0483 9.2812-0.0624 17.243-0.0314 17.693 0.031 0.44986 0.68925 0.29274 1.4627-0.34916 1.1636-0.96574 1.4062-4.3802 1.4062-19.792zm25.728 17.708c1.983-2.8312 2.1118-17.604 0.15346-17.604-1.5701 0-2.444 2.017-2.444 5.6406 0 1.4711-0.4206 3.781-0.93467 5.1332-0.68832 1.8104-0.65069 2.2828 0.14278 1.7925 0.78065-0.48247 0.90594 0.40664 0.45484 3.2277-0.69322 4.3351 0.35381 5.0563 2.6276 1.81zm-19.435-3.7758c1.7334-2.2635-2.0117-61.471-4.3492-68.758-0.48093-1.4993-1.1481-5.5693-1.4826-9.0443s-1.038-6.5839-1.5633-6.9086c-1.0712-0.66201-0.87837 2.1181 1.9826 28.591 1.1261 10.42 1.9092 24.512 1.9796 35.625 0.13734 21.662 0.56833 24.235 3.4329 20.495zm6.886-7.3663c1.5862-2.9638-0.37717-4.3744-2.2891-1.6448-1.8764 2.6789-1.9132 3.6204-0.14148 3.6204 0.7553 0 1.8491-0.88904 2.4306-1.9756zm0.0342-9.5087c0.25474-8.8153-0.37003-22.25-1.5586-33.516-1.5378-14.575-3.132-27.87-3.4598-28.854-0.12422-0.37267 0.19602-0.87015 0.71165-1.1055 0.51562-0.23538 1.4258 2.0849 2.0226 5.1562 0.59684 3.0713 1.5314 7.9045 2.0768 10.74 0.54542 2.8359 1.4495 12.328 2.0091 21.094 1.7263 27.041 2.0133 29.531 3.404 29.531 2.2252 0 0.33864-40.73-2.1712-46.875-0.31588-0.77344-0.87322-4.7812-1.2385-8.9062-1.0381-11.722-3.1575-24.844-4.0129-24.844-0.42719 0-2.2448 1.4258-4.0391 3.1684l-3.2624 3.1684 1.36 10.191c3.3452 25.067 5.2577 45.186 5.2577 55.312 0 4.1442 0.28125 7.8162 0.625 8.1599 1.3628 1.3628 2.1917 0.48059 2.2756-2.4219zm12.2-7.9688c0.72458-1.8832 0.62383-5.358-0.37373-12.891-0.75115-5.6719-1.413-11.578-1.4708-13.125-0.48096-12.873-4.7645-44.105-6.3417-46.238-2.6885-3.6374-3.209 0.16268-1.3962 10.193 0.97379 5.3877 2.2911 14.226 2.9273 19.64 0.6362 5.4141 1.5759 10.367 2.0882 11.007 0.51229 0.6398 0.71493 2.5382 0.45032 4.2188-0.65393 4.1529 1.3601 29.774 2.3405 29.774 0.4313 0 1.2306-1.1602 1.7762-2.5781zm-157.62-31.61c7.4766-0.80883 17.18-1.8534 21.562-2.3212 4.3828-0.46783 8.1586-0.88058 8.3906-0.91722 0.23204-0.0367-0.0309-0.51941-0.58428-1.0728-0.71655-0.71655-4.0762-0.59868-11.672 0.40951-5.8661 0.77862-16.361 1.6355-23.322 1.9042l-12.656 0.48858 9.8438-1.2846c5.4141-0.70651 14.906-1.7897 21.094-2.4072 18.983-1.8943 21.963-2.3486 23.143-3.5283 1.3896-1.3896-6.8693-1.4574-15.643-0.12832-15.023 2.2758-38.94 3.409-58.984 2.7947-4.6374-0.14212 0.003-1.0111 7.951-1.4889 4.8652-0.29248 11.935-0.93326 15.711-1.424 3.7756-0.49071 10.737-0.90599 15.469-0.92286 4.7322-0.0169 11.557-0.42982 15.167-0.91766 3.6094-0.48784 10.57-1.3517 15.469-1.9197 4.8984-0.56798 11.016-1.6029 13.594-2.2998 2.5781-0.69693 8.047-2.1689 12.153-3.2711 8.2251-2.2079 11.601-3.6713 8.5808-3.72-0.97143-0.0157-3.2917 0.36785-5.1562 0.85228-33.842 8.7927-107.48 12.082-145.42 6.4966-26.933-3.9647-51.621-9.3143-69.375-15.033-3.3516-1.0796-8.9788-2.7636-12.505-3.7424-3.5262-0.97878-8.5259-2.8512-11.111-4.1609-2.7172-1.3769-5.3513-2.1174-6.245-1.7555-3.6301 1.4698 21.317 11.084 46.267 17.831 15.87 4.2914 23.11 6.8971 19.219 6.9174-9.1837 0.0479-46.618-11.356-63.784-19.43-10.418-4.9006-11.798-5.2843-12.492-3.4743-0.61289 1.5972-2.7601 0.63014-15.599-7.0254-10.37-6.1834-11.25-6.6382-11.25-5.8168 0 3.4891 27.568 19.808 29.759 17.616 0.36029-0.36029 0.03448-1.0476-0.72403-1.5272-0.7585-0.47969-0.90341-0.87863-0.32202-0.88653 1.7727-0.0241 3.4617 2.5324 2.0289 3.0711-0.69711 0.26208 0.18141 1.103 2.0702 1.9817 1.8047 0.83952 5.6001 3.1795 8.4342 5.1999s6.5426 3.9342 8.2411 4.2529c1.6985 0.31864 5.075 1.4468 7.5033 2.5071 11.11 4.8509 23.647 8.4031 40.509 11.478 4.3828 0.79918 12.648 2.4957 18.368 3.77 5.7195 1.2743 15.845 2.7646 22.5 3.3117 6.6555 0.54713 13.999 1.1515 16.32 1.343 9.5958 0.79211 54.848-0.38073 67.5-1.7494zm-63.75-1.43c-2.9012-0.35553 5.4259-0.69871 19.04-0.78469 15.93-0.10061 23.998 0.16746 23.617 0.78469-0.64583 1.045-34.129 1.045-42.656 0zm-26.409-1.7881c-3.4387-0.30559-6.6028-0.93107-7.0312-1.39-0.45344-0.48567 1.7272-0.58361 5.2179-0.23437 3.2983 0.32998 7.6225 0.59996 9.6094 0.59996s3.6125 0.42187 3.6125 0.9375c0 0.98328-1.2171 0.99254-11.409 0.0869zm23.596-3.5291c-17.431-1.2485-45.829-5.4338-47.329-6.9756-0.65842-0.67645 0.0598-0.80675 2.3293-0.42258 4.2735 0.72339 15.708 2.0259 33.75 3.8443 7.9922 0.80554 18.328 2.0231 22.969 2.7056l8.4375 1.241-7.9688-0.0453c-4.3828-0.0248-9.8672-0.18123-12.188-0.34743zm-51.464-1.3248c-1.235-0.49401-2.0017-1.142-1.7038-1.4399 0.76944-0.76944 8.0516 0.57266 8.6872 1.601 0.68562 1.1094-4.0822 0.99935-6.9834-0.16114zm-18.38-4.3236c-3.7804-0.87829-26.151-7.8415-26.584-8.2748-1.4309-1.4309 5.1377 0.0718 16.013 3.6634 6.8455 2.2607 13.29 4.3212 14.321 4.5788 1.875 0.46836 1.875 0.46836 0 0.46836-1.0312 0-2.7188-0.19603-3.75-0.43562zm-40.021-12.86c-1.8986-0.67801-4.8517-2.1348-6.5625-3.2374l-3.1105-2.0046 3.2812 0.59993c2.992 0.54706 4.8366 1.372 10.669 4.7715 2.6568 1.5485 0.21394 1.4746-4.2776-0.12937zm223.3 13.98c0.97-1.17 0.85-1.41-0.71-1.41-1.0312 0-2.4002 0.63281-3.0421 1.4062-0.97124 1.1703-0.85245 1.4062 0.70792 1.4062 1.0312 0 2.4002-0.63281 3.0421-1.4062zm16.461-3.7202c1.5262-1.1544 1.574-1.3812 0.29637-1.4062-2.8739-0.0563-7.3828 1.1422-7.3828 1.9624 0 1.3359 5.1157 0.93445 7.0864-0.55613zm-73.649-1.9082c15.211-0.75231 30.398-1.7838 33.75-2.2922 12.554-1.9044 28.479-4.7775 28.919-5.2174 1.2414-1.2414-1.3062-1.2284-10.693 0.0548-5.6415 0.77115-12.156 1.6119-14.476 1.8683-2.3203 0.25644-7.8047 0.87386-12.188 1.3721-19.218 2.1846-43.699 2.854-67.5 1.846-38.021-1.6103-44.842-2.6337-87.188-13.082-13.474-3.3246-15.102-3.8032-19.023-5.5922-2.17-0.99014-6.8987-2.6893-10.508-3.7758-6.0534-1.8223-24.665-9.4895-30.703-12.649-3.1236-1.6341-3.3328-0.97592-0.46875 1.4742 5.4002 4.6198 34.374 17.228 48.984 21.315 17.585 4.9198 25.088 6.8765 29.086 7.5854 12.381 2.195 20.257 3.7809 20.972 4.2228 0.43342 0.26787 6.6444 0.97525 13.802 1.572 7.1577 0.59672 16.6 1.3831 20.983 1.7474 13.214 1.0986 27.2 0.98664 56.25-0.45012zm83.024-0.90429c1.7901-1.354 1.7883-1.3769-0.11038-1.4062-1.0616-0.0164-2.7491 0.58959-3.75 1.3466-1.7901 1.354-1.7883 1.3769 0.11038 1.4062 1.0616 0.0164 2.7491-0.58959 3.75-1.3466zm-68.024-5.7272c27.843-2.9992 51.037-6.7067 61.857-9.8878 3.3617-0.98838 7.7997-2.2551 9.8622-2.8149 7.0067-1.9018 7.6634-2.6206 1.875-2.0526-3.0938 0.30357-6.0469 0.87859-6.5625 1.2778-0.51562 0.39921-2.625 1.0136-4.6875 1.3654-2.0625 0.35176-9.0234 1.6843-15.469 2.9613-6.4453 1.277-15.305 2.694-19.688 3.149-4.3828 0.45503-14.086 1.4584-21.562 2.2297-17.998 1.8567-39.155 2.6389-42.656 1.5772-2.2213-0.67354-1.039-0.88481 5.625-1.0051 4.6406-0.0838 9.0703-0.27064 9.8438-0.41527 0.77344-0.14462 4.7812-0.54569 8.9062-0.89123 13.189-1.1048 34.507-3.445 40.312-4.4252 3.0938-0.52235 6.9524-1.0905 8.5749-1.2626 1.6224-0.17207 3.7318-0.79748 4.6875-1.3898 2.5685-1.5919-20.168 0.73535-38.575 3.9484-31.8 5.5509-111.51-0.74286-146.5-11.567-3.2335-1.0003-6.6832-1.8187-7.666-1.8187-0.98281 0-6.8188-1.6405-12.969-3.6455-15.958-5.2025-17.521-5.4932-16.192-3.0096 2.1585 4.0333-6.9-0.93558-9.6064-5.2694-1.0472-1.6769-4.3502-1.5008-5.029 0.2681-0.7618 1.9852 4.6017 6.4068 9.9974 8.2417 2.3203 0.78906 7.5938 2.7644 11.719 4.3896 4.125 1.6252 12.562 4.3457 18.75 6.0455 6.1875 1.6998 14.948 4.1906 19.467 5.5351 4.5195 1.3445 8.9192 2.4445 9.7772 2.4445 0.85794 0 2.8555 0.39888 4.439 0.8864 2.5396 0.78188 12.156 2.403 28.66 4.8315 2.8359 0.41728 12.117 1.0395 20.625 1.3828 8.5078 0.34323 15.554 0.69354 15.657 0.77848 0.92848 0.76008 45.968-0.72001 56.53-1.8577zm-74.531-2.4985c-12.418-0.86905-29.639-3.2364-43.125-5.9284-4.125-0.82338-9.6094-1.841-12.188-2.2614-2.5781-0.42038-8.567-1.8626-13.309-3.205-4.7416-1.3424-9.1713-2.4517-9.8438-2.4652-0.67246-0.0135-2.9102-0.8545-4.9726-1.8688l-3.75-1.8442 3.2812 0.35844c1.8047 0.19715 8.9766 1.8224 15.938 3.6116 29.42 7.562 47.204 10.238 76.406 11.499 5.1562 0.22262 12.75 0.71347 16.875 1.0908l7.5 0.68601-5.1562 0.65307c-6.4679 0.81921-12.269 0.75081-27.656-0.32609zm-96.861-19.88c-6.3349-2.3529-7.9596-3.3287-5.5423-3.3287 0.82894 0 1.7335 0.36627 2.0102 0.81393 0.27667 0.44766 2.5477 1.0852 5.0466 1.4166 4.8727 0.6464 9.9998 3.3535 6.2797 3.3158-1.0312-0.0105-4.5387-1.0084-7.7943-2.2176zm242.52 22.406c1.225-0.15538 2.6805-0.73571 3.2344-1.2896 1.4081-1.4081-3.4966-1.3305-7.5044 0.11872-3.7484 1.3554-4.1882 3.1138-0.53532 2.1404 1.418-0.37785 3.5804-0.81414 4.8054-0.96953zm32.559-5.5568c1.2345-0.80888 2.2446-1.8534 2.2446-2.3212 0-1.2341-5.2376 0.44337-8.7487 2.802l-2.97 1.9951 3.6148-0.50262c1.9881-0.27643 4.6248-1.1644 5.8594-1.9733zm-128.54-4.6914c19.169-0.57151 58.1-4.3235 59.427-5.7274 0.3152-0.33346-15.036-0.35268-34.114-0.0428-19.078 0.30997-51.562 0.61663-72.188 0.68149-34.277 0.10779-36.911 0.22546-30.65 1.3692 12.461 2.276 45.371 4.9268 55.493 4.4698 3.3516-0.15131 13.266-0.48895 22.031-0.75028zm80.625-4.2361c2.5356-1.0896-2.6916-1.0896-6.0938 0-2.1307 0.68236-2.0454 0.7531 0.9375 0.77815 1.8047 0.0152 4.125-0.335 5.1562-0.77815zm67.559-1.5988c1.0741-1.0741 1.2398-1.7184 0.50479-1.9634-1.7562-0.5854-3.8446 0.56974-3.8446 2.1265 0 1.8873 1.3556 1.8211 3.3398-0.16311zm-326.77-2.62c0-0.77344-0.76312-1.4062-1.6958-1.4062-0.9327 0-2.5147-0.6194-3.5156-1.3764-2.1611-1.6346-3.2261-1.7915-3.2261-0.47536 0 0.52839 1.0137 1.3461 2.2527 1.8172 1.239 0.47105 2.5295 1.3044 2.8678 1.8518 0.9233 1.4939 3.317 1.1974 3.317-0.41093zm202.5-0.29469c48.104 1.0428 56.296 0.35326 78.281-6.5897 1.8573-0.58652-4.1923-0.7168-17.812-0.38358-20.481 0.50106-45.202-0.34181-44.044-1.5017 0.33221-0.33294 16.706-0.83041 36.387-1.1055l35.783-0.50013 7.0312-2.6366c3.8672-1.4501 7.432-3.018 7.9219-3.4843 0.53103-0.50542-53.633-0.84766-134.15-0.84766-74.273 0-139.64-0.23348-145.27-0.51886-11.989-0.60843-11.563 0.0637 3.2983 5.2072l8.8347 3.0577 30.072 0.11134c16.539 0.0612 51.091-0.0335 76.781-0.21038 25.69-0.17695 46.96-0.0715 47.266 0.23437 1.7083 1.7083-7.0523 2.0031-72.237 2.4311l-71.388 0.46875 7.0122 1.7135c3.8567 0.94243 8.0669 2.1703 9.356 2.7286 4.1536 1.7989 27.501 2.402 75.938 1.9615 26.039-0.23677 53.461-0.29788 60.938-0.13579zm-212.88-5.42c-1.9068-2.2976-9.373-7.201-10.004-6.57-0.83716 0.83716 3.2773 4.8936 6.652 6.5582 3.7938 1.8713 4.8984 1.8752 3.352 0.0119zm351.46-3.4689c1.3562-1.6341 2.4332-9.4603 1.1967-8.6961-0.48666 0.30078-1.1522 1.7639-1.4789 3.2514-0.32671 1.4875-1.4138 3.4465-2.4159 4.3533-2.4135 2.1842-2.4891 4.5937-0.10413 3.3173 0.94475-0.50561 2.2057-1.5073 2.8022-2.226zm-369.67-3.93c-4.022-3.46-5.156-3.94-5.156-2.19 0 2.055 4.0548 5.4512 6.4915 5.4371 2.3396-0.0135 2.2981-0.11448-1.3353-3.246zm14.662-0.52119c-1.2173-1.0141-2.6938-1.8298-3.2812-1.8126-0.58741 0.0172-0.07206 0.86091 1.1452 1.875s2.6938 1.8298 3.2812 1.8126c0.58741-0.0172 0.07206-0.86091-1.1452-1.875zm-12.193-3.4844c-0.48339-0.90235-1.998-2.8476-3.3659-4.3228-1.901-2.0502-2.3545-3.2851-1.9249-5.2412 0.98383-4.4793-2.0027-5.7542-3.7399-1.5964-1.8166 4.3478-1.8405 4.2025 1.1593 7.0686 5.2307 4.9976 9.5631 7.2497 7.8715 4.0919zm7.375-0.08c0-0.43287-1.0547-1.2676-2.3438-1.8549-2.4813-1.1305-3.0983-0.36259-1.2188 1.5169 1.2908 1.2908 3.5625 1.5063 3.5625 0.33799zm-8.955-7.709c-0.907-1.002-2.019-1.821-2.473-1.821-0.99007 0 0.9637 3.9364 2.428 4.8918 1.7526 1.1436 1.7861-1.1471 0.04494-3.0711zm341.9 2.0484c19.635-4.6768 22.465-30.106 5.0941-45.769-5.4384-4.9035-31.137-18.485-33.948-17.941-0.88044 0.1702 4.4837 3.3486 11.92 7.063 25.863 12.918 35.674 28.735 28.243 45.534l-1.9602 4.4312-83.725 0.05412c-147.82 0.096-197.58-0.043-221.06-0.619-20.774-0.51-22.783-0.427-21.028 0.873 1.0673 0.79042 3.2488 2.6592 4.8477 4.1528l2.9071 2.7157 152.65 0.15924c83.959 0.08756 154.19-0.20657 156.07-0.65366zm28.594-4.2177c1.56-3.2714-0.37346-9.7677-3.1778-10.677-1.9812-0.64268-2.4561 2.5907-0.8692 5.9184 1.3536 2.8385 1.3636 3.5019 0.099 6.5284-1.9077 4.5657 1.6975 2.9499 3.948-1.7694zm-359.66-1.148c0-0.3076-1.582-2.3696-3.5156-4.5822-1.933-2.213-4.914-6.805-6.624-10.205-4.6-9.146-6.426-9.232-5.304-0.251 0.739 5.914 15.444 20.233 15.444 15.038zm232.97-3.7933c41.766-0.28116 83.124-0.42573 91.908-0.32128 14.974 0.17807 15.978 0.08119 16.081-1.5525 0.0605-0.95834 0.41388-2.7026 0.78537-3.8762l0.67545-2.1338-55.663 0.59924c-35.297 0.38-56.515 0.26586-57.992-0.31197-2.8439-1.1126 48.389-2.4257 87.891-2.2528l26.499 0.11602-0.60473-2.5665c-0.33259-1.4116-0.86666-2.8389-1.1868-3.1719-0.32014-0.33301-76.414-0.90644-169.1-1.2743l-168.5-0.669v2.7789c0 3.8991 0.05577 3.9018 92.812 4.4874 43.57 0.27508 83.227 0.78044 88.125 1.123 19.906 1.3922-3.4367 1.803-90.22 1.5877-82.647-0.20507-88.756-0.11186-87.977 1.3423 2.5318 4.7307 1.3806 4.6002 46.947 5.3225 23.461 0.37191 49.195 0.988 57.188 1.3691 7.9922 0.38108 21.703 0.51785 30.469 0.30393 8.7656-0.21392 50.109-0.61898 91.875-0.90014zm-230.15-1.809c0-0.2949-1.0972-2.4085-2.4383-4.6969-2.85-4.861-5.391-12.694-4.367-13.456 0.391-0.291 0.849-2.006 1.018-3.81 1.418-15.146 28.239-33.455 59.693-40.749 3.6094-0.83696 7.4062-1.8914 8.4375-2.3432 1.0312-0.45179 5.8828-1.5189 10.781-2.3714 14.31-2.4904 18.242-3.5556 16.08-4.3556-2.2374-0.82769-15.614 1.3943-20.379 3.3852-1.8865 0.78825-4.7496 1.448-6.3624 1.4661-1.6128 0.01811-5.6746 0.62379-9.0261 1.346-10.741 2.3144-8.0795-0.14836 2.9586-2.7376 29.367-6.8889 43.15-8.9304 60.84-9.0117 6.9342-0.031878 15.772-0.37979 19.639-0.77314 3.8672-0.39335 8.5078-0.33263 10.312 0.13493 1.8047 0.46756 6.8672 0.9889 11.25 1.1585 4.3828 0.16963 8.6016 0.33521 9.375 0.36796 0.77344 0.03275 6.4688-0.15469 12.656-0.41654 14.837-0.62787 34.362 0.91847 56.25 4.4549 24.98 4.0359 24.495 3.9426 32.812 6.313 56.02 15.964 78.29 31.998 78.29 56.365 0 3.3108 2.3187 3.793 3.1591 0.65698 2.6104-9.7407-6.8243-27.496-18.543-34.897-17.363-10.965-33.713-18.657-47.897-22.533-2.5781-0.70448-7.0078-1.974-9.8438-2.8212-2.8359-0.84717-7.2656-1.9656-9.8438-2.4854-2.5781-0.51979-5.1094-1.2815-5.625-1.6927-0.51563-0.41119-6-1.4176-12.188-2.2364-22.69-3.0027-27.28-3.6373-31.88-4.401-21.32-3.5444-120.22-2.3475-135.93 1.645-3.1 0.7861-7.11 1.7756-8.91 2.199-10.57 2.479-40.334 12.987-46.406 16.384-7.63 4.269-7.969 4.556-7.969 6.745 0 2.1128-0.99936 2.9727-8.1111 6.9786-11.482 6.4674-20.658 26.404-16.611 36.089 2.8494 6.8196 8.7844 13.642 8.7844 10.098zm24.843-56.457c1.711-1.8221 10.256-5.6529 14.062-6.3046 3.5197-0.60251 3.6312-0.55404 1.8166 0.78916-3.1885 2.3601-17.625 7.3743-15.879 5.5154zm307.27 39.256c6.0725-0.08526 6.4013-0.6057 2.9636-4.6913l-2.4271-2.8844-28.745-0.06589c-15.81-0.036-29.59-0.428-30.62-0.871-2.4957-1.0724-3.7738-1.0317 29.443-0.93844 30.787 0.08645 30.869 0.06211 19.045-5.6384l-6.3-3.038-83.91 0.161c-82.292 0.15795-115.83-0.40043-111.88-1.8626 2.372-0.87745 183.71-0.47974 189.69 0.41603 4.1354 0.61947 4.0799 0.56498-2.8125-2.759-12.905-6.2239-3.7818-5.8053-141.09-6.4732l-125.63-0.611-5.155 2.53c-2.8359 1.3912-7.2656 3.2854-9.8438 4.2093-4.6342 1.6608-4.205 1.6807 37.734 1.7484 27.611 0.04458 42.422 0.39582 42.422 1.006 0 0.9186-22.908 1.3954-67.969 1.4147l-19.688 0.0084-4.9219 3.1189c-2.707 1.7154-4.9208 3.1881-4.9195 3.2728 0.0013 0.08467 14.872 0.21885 33.047 0.29815 18.174 0.0793 42.438 0.59345 53.918 1.1425 13.137 0.62834 43.019 0.7801 80.625 0.40948 56.632-0.55814 70.101-0.22561 65.274 1.6116-2.5621 0.97525-50.001 1.1917-111.46 0.50848-144.8-1.609-125.8-2.264-127.38 4.387l-0.6163 2.5781 53.221 0.12408c29.272 0.06824 59.76 0.38465 67.752 0.70312 11.14 0.4439 181.15 0.5943 210.23 0.18598zm-58.83-33.931c-12.53-4.025-17.84-4.411-71.72-5.213-93.42-1.391-122.35-0.992-129.68 1.789-1.458 0.55313-5.2549 1.5235-8.4375 2.1563-5.4555 1.0848-4.7137 1.1645 12.963 1.3924 10.312 0.13298 32.672 0.52305 49.688 0.86684 17.016 0.34378 58.359 0.66788 91.875 0.7202l60.938 0.09515-5.625-1.8066zm18.281 0.05083c0-0.4852-0.85429-0.88217-1.8984-0.88217s-4.299-0.84375-7.2331-1.875-6.5095-1.875-7.9453-1.875-2.6106-0.39194-2.6106-0.87098c0-1.2735-8.2249-3.4463-21.562-5.6963-6.45-1.087-16.57-2.975-22.5-4.195-21.78-4.481-75.38-6.341-104.53-3.627-25.009 2.3282-39.317 4.2434-41.981 5.6197-1.4331 0.74036-3.0189 1.0907-3.524 0.77854-1.643-1.0154-4.864 0.51164-3.7953 1.7993 0.75067 0.90451 2.7166 0.81422 9.19-0.42207 35.597-6.7983 102.64-7.4061 146.52-1.3284 5.9297 0.82147 11.432 1.8389 12.228 2.2609 0.79565 0.42202 3.2189 0.79177 5.3849 0.82166 2.1661 0.0299 4.3381 0.30147 4.8268 0.6035 0.48869 0.30203 5.6592 1.7882 11.49 3.3027 5.8308 1.5144 14.187 3.7477 18.57 4.9628 7.9406 2.2015 9.375 2.2967 9.375 0.62271zm-279.79-0.384c1.0009-0.75704 1.327-1.3899 0.72461-1.4062-1.7811-0.04849-4.061 1.0438-4.061 1.9455 0 1.2287 1.2706 1.0233 3.3364-0.53924zm222.6-7.577c-4.8984-0.65931-12.281-1.2532-16.406-1.3198-4.125-0.06658-9.3984-0.52283-11.719-1.0139-6.8741-1.4548-55.305-2.0378-67.5-0.81256-5.9297 0.59576-15.211 1.3852-20.625 1.7542-8.2812 0.56452-6.1234 0.71531 13.594 0.94989 12.891 0.15337 32.086 0.56448 42.656 0.91357 36.587 1.2083 70.5 0.94186 60-0.47145zm-87.28-15.089c1.4419-0.28014 1.9214-0.75972 1.3406-1.3406-0.58085-0.58085-8.7624-0.23085-22.87 0.97837-12.081 1.0355-24.136 1.9531-26.789 2.039-3.4636 0.11218-4.5515 0.44711-3.8593 1.1881 0.87867 0.94061 45.083-1.4865 52.177-2.8649z"/>
</svg>
